<svg width="104" height="104" viewBox="0 0 104 104" fill="none" xmlns="http://www.w3.org/2000/svg">
<path fill-rule="evenodd" clip-rule="evenodd" d="M104 0H0V104H104V0ZM71.1401 43.963C67.501 46.3066 65.6264 49.3198 65.6264 53.449C65.6264 53.4546 65.6261 53.4643 65.6258 53.4779C65.6144 54.0025 65.4765 60.3438 72.4634 63.7161C71.1401 67.8452 66.5086 76.9963 61.1051 76.9963C59.6128 76.9963 58.4295 76.5271 57.2068 76.0422C55.8997 75.5238 54.5475 74.9876 52.7242 74.9876C50.7786 74.9876 49.3058 75.5618 47.935 76.0962C46.742 76.5613 45.6262 76.9963 44.3433 76.9963C39.0501 77.2195 33.9774 67.1756 32.5438 63.0465C31.4411 59.9217 31 56.9085 31 54.007C31 44.0746 37.5062 39.2759 43.6816 39.1643C45.3875 39.1643 47.3469 39.8603 49.0203 40.4549C50.2676 40.898 51.3561 41.2847 52.0625 41.2847C52.618 41.2847 53.5302 40.9524 54.6555 40.5426C56.6581 39.8133 59.3353 38.8383 61.877 39.0527C65.9572 39.3875 69.0449 40.9499 71.1401 43.963ZM62.1021 27.3372C62.1294 28.7687 62.1884 31.8634 59.451 35.1467C57.2455 37.7135 54.5989 39.1643 51.7317 38.9411C51.5112 35.9279 52.6139 33.1379 54.5989 30.906C56.3633 28.8972 59.451 27.2232 62.0976 27C62.0976 27.0989 62.0997 27.2117 62.1021 27.3372Z" fill="#F3F4E3"/>
</svg>
