<svg width="104" height="104" viewBox="0 0 104 104" fill="none" xmlns="http://www.w3.org/2000/svg">
<path d="M27.5763 51.9548V55.4456C27.5763 55.6723 27.4788 55.8537 27.3326 55.9897C27.1864 56.1257 26.9915 56.2163 26.7479 56.2163C26.5042 56.2163 26.3093 56.1257 26.1631 55.9897C26.0169 55.8537 25.9195 55.6723 25.9195 55.4456V51.9095C25.9195 51.5468 25.8708 51.2294 25.7246 50.9121C25.5784 50.5947 25.4322 50.3227 25.1886 50.096C24.9449 49.8694 24.7013 49.688 24.4089 49.552C24.1165 49.416 23.7267 49.3707 23.3369 49.3707C22.947 49.3707 22.6059 49.416 22.3136 49.552C21.9725 49.688 21.7288 49.824 21.4852 50.0507C21.2415 50.2774 21.0466 50.5041 20.9004 50.8214C20.7542 51.1388 20.6568 51.4561 20.6568 51.7735V55.491C20.6568 55.5816 20.6568 55.7177 20.608 55.8083C20.5593 55.899 20.5106 55.9897 20.4131 56.035C20.3157 56.1257 20.2669 56.171 20.1695 56.2163C20.072 56.2617 19.9746 56.2617 19.8284 56.2617C19.7309 56.2617 19.5847 56.2617 19.4873 56.2163C19.3898 56.171 19.2924 56.1257 19.2436 56.035C19.1462 55.9443 19.0975 55.899 19.0487 55.8083C19 55.6723 19 55.5816 19 55.491V45.4265C19 45.3358 19 45.1998 19.0487 45.1091C19.0975 45.0184 19.1462 44.9278 19.2436 44.8371C19.3411 44.7464 19.3898 44.7011 19.4873 44.6558C19.6335 44.6558 19.7309 44.6558 19.8284 44.6558C20.072 44.6558 20.2669 44.7464 20.4131 44.8824C20.5593 45.0184 20.6568 45.2451 20.6568 45.4265V48.8266C21.0466 48.5093 21.4364 48.2826 21.9237 48.0559C22.3623 47.8746 22.8496 47.7839 23.3856 47.7839C24.0191 47.7839 24.5551 47.8746 25.0911 48.1013C25.6271 48.3279 26.0657 48.6 26.4068 49.008C26.7966 49.3707 27.089 49.824 27.2839 50.3227C27.4788 50.8214 27.5763 51.3654 27.5763 51.9095V51.9548Z" fill="#F3F4E3"/>
<path d="M31.1827 52.2267C31.1827 52.5894 31.2314 52.9068 31.3776 53.2241C31.5238 53.5415 31.7187 53.8135 31.9623 54.0402C32.206 54.2668 32.4983 54.4482 32.8394 54.5842C33.1805 54.7202 33.5216 54.7655 33.9115 54.7655C34.3013 54.7655 34.6424 54.7202 34.9835 54.5842C35.3246 54.4482 35.617 54.2668 35.8606 54.0402C36.1043 53.8135 36.2992 53.5415 36.4454 53.2241C36.5916 52.9068 36.689 52.5894 36.689 52.2267V52.1814V48.6452C36.689 48.5545 36.689 48.4185 36.7377 48.3279C36.7865 48.2372 36.8352 48.1465 36.9327 48.1012C37.0301 48.0105 37.0788 47.9652 37.225 47.9198C37.3225 47.8745 37.4199 47.8745 37.5661 47.8745C37.8098 47.8745 38.0047 47.9652 38.1509 48.1012C38.2971 48.2372 38.3945 48.4185 38.3945 48.6452V52.1361V52.1814V52.2267C38.3945 52.7254 38.2971 53.2241 38.1021 53.6775C37.9072 54.1308 37.6636 54.5388 37.3225 54.9015C36.9814 55.2642 36.6403 55.5816 36.153 55.8082C35.7144 56.0349 35.2271 56.2163 34.7399 56.3069V58.5284C34.7399 58.6191 34.7399 58.7551 34.6911 58.8457C34.6424 58.9364 34.5937 59.0271 34.4962 59.1177C34.3988 59.2084 34.35 59.2538 34.2526 59.2991C34.1551 59.3444 34.0577 59.3444 33.9115 59.3444C33.6678 59.3444 33.4729 59.2538 33.3267 59.1177C33.1805 58.9817 33.0831 58.7551 33.0831 58.5737V56.3523C32.5471 56.2616 32.1085 56.0803 31.6699 55.8536C31.2314 55.6269 30.8416 55.3096 30.5492 54.9469C30.2081 54.5842 29.9644 54.1762 29.8183 53.7228C29.6233 53.2695 29.5259 52.8161 29.5259 52.2721V48.6452C29.5259 48.4185 29.6233 48.2372 29.7695 48.1012C29.9157 47.9652 30.1106 47.8745 30.3543 47.8745C30.4517 47.8745 30.5979 47.8745 30.6954 47.9198C30.7928 47.9652 30.8903 48.0105 30.939 48.1012C31.0365 48.1919 31.0852 48.2372 31.1339 48.3279C31.1339 48.4639 31.1827 48.5545 31.1827 48.6452V52.2267Z" fill="#F3F4E3"/>
<path d="M40.1976 52.0457C40.1976 51.4564 40.295 50.9123 40.5387 50.3683C40.7823 49.8243 41.1234 49.3709 41.5132 49.0082C41.9518 48.6002 42.4391 48.3282 42.9751 48.1015C43.5598 47.8749 44.1446 47.7842 44.7781 47.7842C45.4115 47.7842 45.9963 47.8749 46.581 48.1015C47.117 48.3282 47.6043 48.6456 48.0429 49.0082C48.4814 49.4163 48.7738 49.8696 49.0175 50.3683C49.2611 50.9123 49.3586 51.4564 49.3586 52.0457C49.3586 52.6351 49.2611 53.1791 49.0175 53.7231C48.7738 54.2218 48.4327 54.6752 48.0429 55.0832C47.6043 55.4912 47.117 55.7633 46.581 55.9899C46.045 56.2166 45.4115 56.3073 44.7781 56.3073C44.1933 56.3073 43.6573 56.2166 43.17 56.0353C42.6827 55.8539 42.2442 55.6272 41.8056 55.3099V58.4381C41.8056 58.6647 41.7081 58.8461 41.562 59.0274C41.4158 59.1634 41.2209 59.2541 40.9772 59.2541C40.8798 59.2541 40.7336 59.2541 40.6361 59.2088C40.5387 59.1634 40.4412 59.1181 40.3437 59.0274C40.2463 58.9367 40.1976 58.8914 40.1488 58.7554C40.1001 58.6647 40.1001 58.5287 40.1001 58.4381V52.0457H40.1976ZM41.8543 52.0457C41.8543 52.4084 41.9518 52.7711 42.098 53.0884C42.2442 53.4058 42.4391 53.7231 42.7314 53.9498C42.9751 54.1765 43.3162 54.4032 43.6573 54.5392C43.9984 54.6752 44.3882 54.7659 44.8268 54.7659C45.2166 54.7659 45.6064 54.6752 45.9963 54.5392C46.3374 54.4032 46.6785 54.1765 46.9221 53.9498C47.1658 53.7231 47.4094 53.4058 47.5556 53.0884C47.7018 52.7711 47.7992 52.4084 47.7992 52.0457C47.7992 51.683 47.7018 51.3204 47.5556 50.9577C47.4094 50.6403 47.2145 50.323 46.9221 50.0963C46.6785 49.8696 46.3374 49.6429 45.9963 49.5069C45.6552 49.3709 45.2653 49.2803 44.8268 49.2803C44.437 49.2803 44.0471 49.3709 43.6573 49.5069C43.3162 49.6429 42.9751 49.8243 42.7314 50.0963C42.4878 50.323 42.2442 50.6403 42.098 50.9577C41.9518 51.3204 41.8543 51.683 41.8543 52.0457Z" fill="#F3F4E3"/>
<path d="M52.2332 52.7712C52.282 53.0885 52.4282 53.3605 52.5743 53.5872C52.7693 53.8139 52.9642 54.0406 53.2078 54.2219C53.4515 54.4033 53.7438 54.5393 54.0362 54.6299C54.3286 54.7206 54.6697 54.7659 55.0108 54.7659C55.4006 54.7659 55.7904 54.7206 56.1315 54.5846C56.4726 54.4486 56.765 54.2672 57.0087 54.0406C57.1548 53.9499 57.301 53.8592 57.4472 53.8592C57.5934 53.8592 57.7396 53.8592 57.837 53.9046C57.9345 53.9499 57.9832 53.9952 58.0807 54.0406C58.1294 54.0859 58.2269 54.1766 58.2756 54.2219C58.3731 54.3579 58.4218 54.5393 58.4218 54.7206C58.4218 54.9019 58.3243 55.0833 58.1294 55.2646C57.9832 55.4006 57.7883 55.5366 57.5934 55.6727C57.3985 55.8087 57.1548 55.8993 56.9112 56.0353C56.6676 56.126 56.3752 56.2167 56.0828 56.262C55.7904 56.3074 55.4493 56.3527 55.0595 56.3527C54.426 56.3527 53.8413 56.262 53.2565 56.0353C52.6718 55.8087 52.1845 55.4913 51.7947 55.1286C51.3561 54.7206 51.0638 54.2672 50.8201 53.7686C50.5765 53.2245 50.479 52.6805 50.479 52.0911C50.479 51.5018 50.5765 50.9577 50.8201 50.4137C51.0638 49.8697 51.4049 49.4163 51.7947 49.0537C52.2332 48.6456 52.7205 48.3736 53.2565 48.1469C53.8413 47.9203 54.426 47.8296 55.0595 47.8296C55.693 47.8296 56.2777 47.9203 56.8625 48.1469C57.3985 48.3736 57.8858 48.691 58.3243 49.0537C58.7629 49.4163 59.0553 49.8697 59.3476 50.4137C59.5913 50.9124 59.7375 51.5018 59.7375 52.0911C59.7375 52.3178 59.64 52.4992 59.4938 52.6352C59.3476 52.7712 59.1527 52.8618 58.9091 52.8618H52.2332V52.7712ZM57.8858 51.4564C57.8371 51.1391 57.6909 50.8671 57.5447 50.5951C57.3498 50.323 57.1548 50.0964 56.9112 49.915C56.6676 49.7337 56.3752 49.5977 56.0341 49.4617C55.693 49.371 55.3519 49.3257 55.0108 49.3257C54.6697 49.3257 54.2799 49.371 53.9875 49.507C53.6464 49.5977 53.4027 49.779 53.1104 49.9604C52.8667 50.1417 52.6718 50.3684 52.4769 50.6404C52.3307 50.9124 52.1845 51.1844 52.1358 51.5018H57.8858V51.4564Z" fill="#F3F4E3"/>
<path d="M65.7797 49.4613C65.3412 49.4613 64.9513 49.552 64.5615 49.688C64.1717 49.824 63.8306 50.0507 63.5869 50.3227C63.2945 50.5947 63.0996 50.9121 62.9047 51.2748C62.7585 51.6374 62.6611 52.0001 62.6611 52.4082V55.491C62.6611 55.7177 62.5636 55.899 62.4174 56.035C62.2712 56.171 62.0763 56.2617 61.8327 56.2617C61.589 56.2617 61.3941 56.171 61.1992 56.035C61.053 55.899 60.9556 55.7177 60.9556 55.491V52.3628C60.9556 51.7281 61.1018 51.1841 61.3454 50.6401C61.589 50.096 61.9301 49.6427 62.3687 49.2347C62.8073 48.8266 63.2945 48.5093 63.8793 48.2826C64.464 48.0559 65.0975 47.9199 65.731 47.9199H65.7797C66.0721 47.9199 66.267 48.0106 66.4132 48.1466C66.5594 48.2826 66.6568 48.4639 66.6568 48.6906C66.6568 48.9173 66.5594 49.0986 66.4132 49.2347C66.267 49.3707 66.0721 49.4613 65.7797 49.4613Z" fill="#F3F4E3"/>
<path d="M67.0957 52.0457C67.0957 51.4564 67.1932 50.9123 67.4368 50.3683C67.6805 49.8243 68.0216 49.3709 68.4114 49.0082C68.8499 48.6002 69.3372 48.3282 69.8732 48.1015C70.458 47.8749 71.0427 47.7842 71.6762 47.7842C72.3097 47.7842 72.8944 47.8749 73.4792 48.1015C74.0152 48.3282 74.5025 48.6456 74.941 49.0082C75.3796 49.3709 75.672 49.8243 75.9156 50.3683C76.1593 50.867 76.3054 51.4564 76.3054 52.0457V52.0911V55.4912C76.3054 55.7179 76.208 55.8993 76.0618 56.0806C75.9156 56.2619 75.672 56.3073 75.4283 56.3073C75.1847 56.3073 74.9898 56.2166 74.8436 56.0806C74.6974 55.9446 74.5999 55.7179 74.5999 55.4912V55.3099C74.2101 55.6272 73.7716 55.8993 73.2843 56.1259C72.797 56.3073 72.261 56.4433 71.7249 56.4433C71.0915 56.4433 70.5067 56.3526 69.922 56.1259C69.3372 55.8993 68.8499 55.5819 68.4601 55.2192C68.0216 54.8112 67.7292 54.3578 67.4855 53.8592C67.1932 53.2245 67.0957 52.6804 67.0957 52.0457ZM68.7525 52.0457C68.7525 52.4084 68.8499 52.7711 68.9961 53.0884C69.1423 53.4058 69.3372 53.7231 69.6296 53.9498C69.8732 54.1765 70.2143 54.4032 70.5555 54.5392C70.8966 54.6752 71.2864 54.7659 71.7249 54.7659C72.1148 54.7659 72.5046 54.6752 72.8944 54.5392C73.2355 54.4032 73.5766 54.1765 73.8203 53.9498C74.0639 53.7231 74.3076 53.4058 74.4538 53.0884C74.5999 52.7711 74.6974 52.4084 74.6974 52.0457C74.6974 51.683 74.5999 51.3204 74.4538 50.9577C74.3076 50.6403 74.1127 50.323 73.8203 50.0963C73.5766 49.8696 73.2355 49.6429 72.8944 49.5069C72.5533 49.3709 72.1635 49.2803 71.7249 49.2803C71.3351 49.2803 70.9453 49.3709 70.5555 49.5069C70.2143 49.6429 69.8732 49.8243 69.6296 50.0963C69.386 50.323 69.1423 50.6403 68.9961 50.9577C68.8012 51.3204 68.7525 51.683 68.7525 52.0457Z" fill="#F3F4E3"/>
<path d="M78.3521 45.9704C78.3521 45.6984 78.4495 45.5171 78.6444 45.3357C78.8393 45.1544 79.0342 45.0637 79.3266 45.0637C79.619 45.0637 79.8139 45.1544 80.0088 45.3357C80.2037 45.5171 80.3012 45.6984 80.3012 45.9704C80.3012 46.1064 80.3012 46.1971 80.2525 46.2878C80.2037 46.3785 80.155 46.4691 80.0575 46.5598C79.9601 46.6505 79.8626 46.6958 79.7652 46.7411C79.6677 46.7865 79.5215 46.8318 79.3753 46.8318C79.2292 46.8318 79.1317 46.7865 78.9855 46.7411C78.8881 46.6958 78.7906 46.6505 78.6931 46.5598C78.5957 46.4691 78.547 46.3785 78.4982 46.2878C78.4495 46.1971 78.3521 46.0611 78.3521 45.9704ZM80.155 55.4909C80.155 55.5816 80.155 55.7176 80.1063 55.8083C80.0575 55.8989 80.0088 55.9896 79.9114 56.0349C79.8139 56.1256 79.7652 56.171 79.6677 56.2163C79.5703 56.2616 79.4728 56.2616 79.3266 56.2616C79.2292 56.2616 79.083 56.2616 78.9855 56.2163C78.8881 56.171 78.7906 56.1256 78.7419 56.0349C78.6444 55.9443 78.5957 55.8989 78.547 55.8083C78.4982 55.7176 78.4982 55.6269 78.4982 55.4909V48.6906C78.4982 48.4639 78.5957 48.2826 78.7419 48.1465C78.8881 48.0105 79.1317 47.9199 79.3266 47.9199C79.5703 47.9199 79.7652 48.0105 79.9114 48.1465C80.0575 48.2826 80.155 48.4639 80.155 48.6906V55.4909Z" fill="#F3F4E3"/>
<path d="M87.123 49.4613C86.6844 49.4613 86.2946 49.552 85.9048 49.688C85.5149 49.824 85.1738 50.0507 84.9302 50.3227C84.6378 50.5947 84.4429 50.9121 84.248 51.2748C84.1018 51.6374 84.0043 52.0001 84.0043 52.4082V55.491C84.0043 55.7177 83.9069 55.899 83.7607 56.035C83.6145 56.171 83.4196 56.2617 83.1759 56.2617C82.9323 56.2617 82.7374 56.171 82.5425 56.035C82.3963 55.899 82.2988 55.7177 82.2988 55.491V52.3628C82.2988 51.7281 82.445 51.1841 82.6887 50.6401C82.9323 50.096 83.2734 49.6427 83.712 49.2347C84.1505 48.8266 84.6378 48.5093 85.2226 48.2826C85.8073 48.0559 86.4408 47.9199 87.0742 47.9199H87.123C87.4154 47.9199 87.6103 48.0106 87.7565 48.1466C87.9026 48.2826 88.0001 48.4639 88.0001 48.6906C88.0001 48.9173 87.9026 49.0986 87.7565 49.2347C87.6103 49.3707 87.3666 49.4613 87.123 49.4613Z" fill="#F3F4E3"/>
<path fill-rule="evenodd" clip-rule="evenodd" d="M104 0H0V104H104V0ZM52.5 95C75.9721 95 95 75.9722 95 52.5C95 29.0278 75.9721 10 52.5 10C29.0279 10 10 29.0278 10 52.5C10 75.9722 29.0279 95 52.5 95Z" fill="#F3F4E3"/>
</svg>
