<svg width="104" height="104" viewBox="0 0 104 104" fill="none" xmlns="http://www.w3.org/2000/svg">
<path fill-rule="evenodd" clip-rule="evenodd" d="M0 0H104V104H0V0ZM18.9379 52.309V56.7611C18.9379 57.0502 18.8136 57.2815 18.6271 57.455C18.4407 57.6284 18.1921 57.7441 17.8814 57.7441C17.5706 57.7441 17.322 57.6284 17.1356 57.455C16.9492 57.2815 16.8249 57.0502 16.8249 56.7611V52.2512C16.8249 51.7887 16.7627 51.3839 16.5763 50.9792C16.3898 50.5744 16.2034 50.2275 15.8927 49.9384C15.5819 49.6493 15.2712 49.4181 14.8983 49.2446C14.5254 49.0711 14.0282 49.0133 13.5311 49.0133C13.0339 49.0133 12.5989 49.0711 12.226 49.2446C11.791 49.4181 11.4802 49.5915 11.1695 49.8806C10.8588 50.1697 10.6102 50.4588 10.4237 50.8635C10.2373 51.2683 10.113 51.673 10.113 52.0778V56.8189C10.113 56.9346 10.113 57.108 10.0508 57.2237C9.9887 57.3393 9.92655 57.455 9.80226 57.5128C9.67797 57.6284 9.61582 57.6862 9.49153 57.7441C9.36723 57.8019 9.24294 57.8019 9.0565 57.8019C8.9322 57.8019 8.74576 57.8019 8.62147 57.7441C8.49718 57.6862 8.37288 57.6284 8.31073 57.5128C8.18644 57.3971 8.12429 57.3393 8.06215 57.2237C8 57.0502 8 56.9346 8 56.8189V43.983C8 43.8674 8 43.6939 8.06215 43.5783C8.12429 43.4627 8.18644 43.347 8.31073 43.2314C8.43503 43.1157 8.49718 43.0579 8.62147 43.0001H9.0565C9.36723 43.0001 9.61582 43.1157 9.80226 43.2892C9.9887 43.4627 10.113 43.7518 10.113 43.983V48.3195C10.6102 47.9148 11.1073 47.6257 11.7288 47.3366C12.2881 47.1053 12.9096 46.9896 13.5932 46.9896C14.4011 46.9896 15.0847 47.1053 15.7684 47.3944C16.452 47.6835 17.0113 48.0304 17.4463 48.5508C17.9435 49.0133 18.3164 49.5915 18.565 50.2275C18.8136 50.8635 18.9379 51.5574 18.9379 52.2512V52.309ZM23.7853 53.9279C23.5988 53.5231 23.5367 53.1184 23.5367 52.6558V48.0881C23.5367 48.0361 23.5241 47.9842 23.5103 47.9269C23.4934 47.8568 23.4746 47.7789 23.4746 47.6834C23.4124 47.5677 23.3503 47.5099 23.226 47.3943C23.1638 47.2786 23.0395 47.2208 22.9152 47.163C22.7909 47.1052 22.6045 47.1052 22.4802 47.1052C22.1695 47.1052 21.9209 47.2208 21.7344 47.3943C21.548 47.5677 21.4237 47.799 21.4237 48.0881V52.7137C21.4237 53.4075 21.548 53.9857 21.7966 54.5639C21.983 55.1421 22.2938 55.6625 22.7288 56.125C23.1017 56.5876 23.5988 56.9923 24.1582 57.2814C24.7175 57.5705 25.2768 57.8018 25.9604 57.9174V60.7506C25.9604 60.9818 26.0847 61.2709 26.2712 61.4444C26.4576 61.6179 26.7062 61.7335 27.0169 61.7335C27.2034 61.7335 27.3277 61.7335 27.452 61.6757C27.5762 61.6179 27.6384 61.56 27.7627 61.4444C27.887 61.3288 27.9491 61.2131 28.0113 61.0975C28.0734 60.9818 28.0734 60.8084 28.0734 60.6927V57.8596C28.6949 57.744 29.3164 57.5127 29.8757 57.2236C30.4972 56.9345 30.9322 56.5298 31.3672 56.0672C31.8022 55.6046 32.113 55.0843 32.3616 54.5061C32.6101 53.9279 32.7344 53.2919 32.7344 52.6558V52.598V52.5402V48.0881C32.7344 47.799 32.6101 47.5677 32.4237 47.3943C32.2373 47.2208 31.9887 47.1052 31.6779 47.1052C31.4915 47.1052 31.3672 47.1052 31.2429 47.163C31.0565 47.2208 30.9943 47.2786 30.87 47.3943C30.7457 47.4521 30.6836 47.5677 30.6214 47.6834C30.5593 47.799 30.5593 47.9725 30.5593 48.0881V52.598V52.6558C30.5593 53.1184 30.435 53.5231 30.2486 53.9279C30.0621 54.3326 29.8135 54.6795 29.5028 54.9686C29.1921 55.2577 28.8192 55.489 28.3842 55.6625C27.9491 55.8359 27.5141 55.8937 27.0169 55.8937C26.5198 55.8937 26.0847 55.8359 25.6497 55.6625C25.2147 55.489 24.8418 55.2577 24.531 54.9686C24.2203 54.6795 23.9717 54.3326 23.7853 53.9279ZM35.034 52.425C35.034 51.6734 35.1583 50.9795 35.469 50.2857C35.7797 49.5919 36.2148 49.0137 36.7119 48.5511C37.2713 48.0307 37.8927 47.6838 38.5763 47.3947C39.3221 47.1056 40.0679 46.99 40.8758 46.99C41.6837 46.99 42.4295 47.1056 43.1752 47.3947C43.8588 47.6838 44.4803 48.0885 45.0396 48.5511C45.5989 49.0715 45.9718 49.6497 46.2826 50.2857C46.5933 50.9795 46.7176 51.6734 46.7176 52.425C46.7176 53.1767 46.5933 53.8705 46.2826 54.5643C45.9718 55.2003 45.5368 55.7785 45.0396 56.2989C44.4803 56.8193 43.8588 57.1662 43.1752 57.4553C42.4916 57.7444 41.6837 57.86 40.8758 57.86C40.13 57.86 39.4464 57.7444 38.8249 57.5131C38.2035 57.2818 37.6441 56.9927 37.0848 56.588V60.5775C37.0848 60.8666 36.9605 61.0979 36.7741 61.3292C36.5876 61.5027 36.3391 61.6183 36.0283 61.6183C35.904 61.6183 35.7176 61.6183 35.5933 61.5605C35.469 61.5027 35.3447 61.4448 35.2204 61.3292C35.0961 61.2136 35.034 61.1557 34.9718 60.9823C34.9097 60.8666 34.9097 60.6932 34.9097 60.5775V52.425H35.034ZM37.147 52.425C37.147 52.8876 37.2713 53.3501 37.4577 53.7549C37.6441 54.1596 37.8927 54.5643 38.2656 54.8534C38.5763 55.1425 39.0114 55.4316 39.4464 55.6051C39.8814 55.7785 40.3786 55.8942 40.9379 55.8942C41.4351 55.8942 41.9323 55.7785 42.4295 55.6051C42.8645 55.4316 43.2995 55.1425 43.6102 54.8534C43.921 54.5643 44.2317 54.1596 44.4181 53.7549C44.6046 53.3501 44.7289 52.8876 44.7289 52.425C44.7289 51.9624 44.6046 51.4999 44.4181 51.0373C44.2317 50.6326 43.9831 50.2279 43.6102 49.9388C43.2995 49.6497 42.8645 49.3606 42.4295 49.1871C41.9944 49.0137 41.4972 48.898 40.9379 48.898C40.4408 48.898 39.9436 49.0137 39.4464 49.1871C39.0114 49.3606 38.5763 49.5919 38.2656 49.9388C37.9549 50.2279 37.6441 50.6326 37.4577 51.0373C37.2713 51.4999 37.147 51.9624 37.147 52.425ZM50.4052 53.4658C50.482 53.8214 50.6504 54.1298 50.8189 54.391C51.0675 54.6801 51.3161 54.9692 51.6268 55.2004C51.9375 55.4317 52.3104 55.6052 52.6833 55.7208C53.0562 55.8364 53.4912 55.8943 53.9262 55.8943C54.4234 55.8943 54.9206 55.8364 55.3556 55.663C55.7906 55.4895 56.1635 55.2582 56.4743 54.9692C56.6607 54.8535 56.8471 54.7379 57.0336 54.7379C57.22 54.7379 57.4065 54.7379 57.5307 54.7957C57.5929 54.8246 57.6395 54.8535 57.6861 54.8824C57.7327 54.9113 57.7793 54.9402 57.8415 54.9692L58.0901 55.2004C58.2144 55.3739 58.2765 55.6052 58.2765 55.8364C58.2765 56.0677 58.1522 56.299 57.9036 56.5303C57.7173 56.7037 57.4688 56.877 57.2203 57.0504L57.2203 57.0505L57.2202 57.0505L57.2202 57.0505L57.2202 57.0505L57.22 57.0507C57.0701 57.1553 56.8975 57.2389 56.7159 57.3268L56.7159 57.3268C56.5965 57.3847 56.4732 57.4444 56.35 57.5132C56.0392 57.6288 55.6663 57.7445 55.2935 57.8023C54.9206 57.8601 54.4855 57.9179 53.9884 57.9179C53.1805 57.9179 52.4347 57.8023 51.6889 57.5132C50.9432 57.2241 50.3217 56.8194 49.8245 56.3568C49.2652 55.8364 48.8923 55.2582 48.5816 54.6222C48.2709 53.9284 48.1466 53.2346 48.1466 52.4829C48.1466 51.7313 48.2709 51.0374 48.5816 50.3436C48.8923 49.6498 49.3274 49.0716 49.8245 48.609C50.3839 48.0886 51.0053 47.7417 51.6889 47.4526C52.4347 47.1635 53.1805 47.0479 53.9884 47.0479C54.7963 47.0479 55.542 47.1635 56.2878 47.4526C56.9714 47.7417 57.5929 48.1465 58.1522 48.609C58.7115 49.0716 59.0844 49.6498 59.4573 50.3436C59.768 50.9796 59.9545 51.7313 59.9545 52.4829C59.9545 52.772 59.8302 53.0033 59.6437 53.1768C59.4573 53.3502 59.2087 53.4658 58.898 53.4658H50.4052ZM57.1579 50.5749C57.3443 50.9218 57.5308 51.2687 57.5929 51.6734V51.7313H50.2596C50.3217 51.3265 50.5081 50.9796 50.6946 50.6327C50.9432 50.2858 51.1918 49.9967 51.5025 49.7654C51.5655 49.7263 51.6268 49.6872 51.6872 49.6487C51.984 49.4592 52.2597 49.2833 52.6211 49.1872C52.994 49.0138 53.4912 48.9559 53.9262 48.9559C54.3613 48.9559 54.7963 49.0138 55.2313 49.1294C55.6663 49.3028 56.0392 49.4763 56.35 49.7076C56.6607 49.9389 56.9093 50.228 57.1579 50.5749L57.1579 50.5749ZM67.6605 49.129C67.1012 49.129 66.604 49.2446 66.1069 49.4181C65.6097 49.5915 65.1747 49.8806 64.8639 50.2275C64.491 50.5744 64.2425 50.9792 63.9939 51.4417C63.8074 51.9043 63.6831 52.3668 63.6831 52.8872V56.8189C63.6831 57.108 63.5588 57.3393 63.3724 57.5128C63.186 57.6862 62.9374 57.8019 62.6266 57.8019C62.3159 57.8019 62.0673 57.6862 61.8187 57.5128C61.6323 57.3393 61.508 57.108 61.508 56.8189V52.8294C61.508 52.0199 61.6944 51.3261 62.0052 50.6323C62.3159 49.9384 62.7509 49.3602 63.3103 48.8399C63.8696 48.3195 64.491 47.9148 65.2368 47.6257C65.9826 47.3366 66.7905 47.1631 67.5984 47.1631H67.6605C68.0334 47.1631 68.282 47.2787 68.4685 47.4522C68.6549 47.6257 68.7792 47.8569 68.7792 48.146C68.7792 48.4351 68.6549 48.6664 68.4685 48.8399C68.282 49.0133 68.0334 49.129 67.6605 49.129ZM69.7746 50.2857C69.4638 50.9795 69.3395 51.6734 69.3395 52.425C69.3395 53.2345 69.4638 53.9283 69.8367 54.7378C70.1474 55.3738 70.5203 55.952 71.0796 56.4724C71.5768 56.9349 72.1983 57.3397 72.944 57.6288C73.6898 57.9179 74.4356 58.0335 75.2435 58.0335C75.9271 58.0335 76.6107 57.86 77.2322 57.6288C77.8537 57.3397 78.413 56.9927 78.9102 56.588V56.8193C78.9102 57.1084 79.0344 57.3975 79.2209 57.5709C79.4073 57.7444 79.6559 57.86 79.9667 57.86C80.2774 57.86 80.5881 57.8022 80.7746 57.5709C80.961 57.3397 81.0853 57.1084 81.0853 56.8193V52.4828V52.425C81.0853 51.6734 80.8989 50.9217 80.5881 50.2857C80.2774 49.5919 79.9045 49.0137 79.3452 48.5511C78.7859 48.0885 78.1644 47.6838 77.4808 47.3947C76.735 47.1056 75.9893 46.99 75.1813 46.99C74.3734 46.99 73.6277 47.1056 72.8819 47.3947C72.1983 47.6838 71.5768 48.0307 71.0175 48.5511C70.5203 49.0137 70.0853 49.5919 69.7746 50.2857ZM71.7633 53.7549C71.5768 53.3501 71.4525 52.8876 71.4525 52.425C71.4525 51.9624 71.5147 51.4999 71.7633 51.0373C71.9497 50.6326 72.2604 50.2279 72.5712 49.9388C72.8819 49.5919 73.3169 49.3606 73.752 49.1871C74.2491 49.0137 74.7463 48.898 75.2435 48.898C75.8028 48.898 76.3 49.0137 76.735 49.1871C77.17 49.3606 77.6051 49.6497 77.9158 49.9388C78.2887 50.2279 78.5373 50.6326 78.7237 51.0373C78.9102 51.4999 79.0345 51.9624 79.0345 52.425C79.0345 52.8876 78.9102 53.3501 78.7237 53.7549C78.5373 54.1596 78.2265 54.5643 77.9158 54.8534C77.6051 55.1425 77.17 55.4316 76.735 55.6051C76.2378 55.7785 75.7407 55.8942 75.2435 55.8942C74.6842 55.8942 74.187 55.7785 73.752 55.6051C73.3169 55.4316 72.8819 55.1425 72.5712 54.8534C72.1983 54.5643 71.9497 54.1596 71.7633 53.7549ZM83.6961 44.6768C83.6961 44.3299 83.8204 44.0986 84.069 43.8673C84.3176 43.636 84.5661 43.5204 84.939 43.5204C85.3119 43.5204 85.5605 43.636 85.8091 43.8673C86.0576 44.0986 86.1819 44.3299 86.1819 44.6768C86.1819 44.8503 86.1819 44.9659 86.1198 45.0815C86.0576 45.1972 85.9955 45.3128 85.8712 45.4284C85.7469 45.5441 85.6226 45.6019 85.4983 45.6597C85.374 45.7175 85.1876 45.7754 85.0012 45.7754C84.8536 45.7754 84.745 45.7392 84.6137 45.6954C84.5791 45.6839 84.5429 45.6718 84.504 45.6597C84.3797 45.6019 84.2554 45.5441 84.1311 45.4284C84.0068 45.3128 83.9447 45.1972 83.8825 45.0815C83.8679 45.0542 83.8497 45.0237 83.8306 44.9915C83.7686 44.8872 83.6961 44.7651 83.6961 44.6768ZM85.9955 56.8189C85.9955 56.9345 85.9955 57.108 85.9334 57.2236C85.8712 57.3392 85.8091 57.4549 85.6848 57.5127C85.5605 57.6283 85.4983 57.6862 85.374 57.744C85.2497 57.8018 85.1255 57.8018 84.939 57.8018C84.8147 57.8018 84.6283 57.8018 84.504 57.744C84.3797 57.6862 84.2554 57.6283 84.1933 57.5127C84.069 57.3971 84.0068 57.3392 83.9447 57.2236C83.8825 57.108 83.8825 56.9923 83.8825 56.8189V48.146C83.8825 47.8569 84.0068 47.6256 84.1933 47.4521C84.3797 47.2787 84.6904 47.163 84.939 47.163C85.2497 47.163 85.4983 47.2787 85.6848 47.4521C85.8712 47.6256 85.9955 47.8569 85.9955 48.146V56.8189ZM93.3279 49.4181C93.8251 49.2446 94.3223 49.129 94.8816 49.129C95.1923 49.129 95.5031 49.0133 95.6895 48.8399C95.8759 48.6664 96.0002 48.4351 96.0002 48.146C96.0002 47.8569 95.8759 47.6257 95.6895 47.4522C95.5031 47.2787 95.2545 47.1631 94.8816 47.1631H94.8194C94.0115 47.1631 93.2036 47.3366 92.4579 47.6257C91.7121 47.9148 91.0906 48.3195 90.5313 48.8399C89.972 49.3602 89.537 49.9384 89.2262 50.6323C88.9155 51.3261 88.729 52.0199 88.729 52.8294V56.8189C88.729 57.108 88.8533 57.3393 89.0398 57.5128C89.2884 57.6862 89.537 57.8019 89.8477 57.8019C90.1584 57.8019 90.407 57.6862 90.5934 57.5128C90.7799 57.3393 90.9042 57.108 90.9042 56.8189V52.8872C90.9042 52.3668 91.0285 51.9043 91.2149 51.4417C91.4635 50.9792 91.7121 50.5744 92.085 50.2275C92.3957 49.8806 92.8307 49.5915 93.3279 49.4181Z" fill="#F3F4E3"/>
</svg>
