<svg width="104" height="104" viewBox="0 0 104 104" fill="none" xmlns="http://www.w3.org/2000/svg">
<path fill-rule="evenodd" clip-rule="evenodd" d="M104 0H0V104H104V0ZM15 45.5507V66.4782C15 66.8261 15.2319 67.1449 15.6377 67.4348C16.0725 67.7246 16.6232 67.8696 17.2899 67.8696C17.9565 67.8696 18.5072 67.7246 19 67.4348C19.4928 67.1449 19.7246 66.7971 19.7246 66.4493V57.9275C20.0725 58.6811 20.7101 59.2898 21.6087 59.8406C22.4783 60.3913 23.4638 60.6522 24.5072 60.6522C26.1884 60.6522 27.6667 59.9275 28.971 58.5362C30.2754 57.1159 30.913 55.4927 30.913 53.6667V50.884C30.913 48.971 30.2754 47.3478 29 45.9855C27.7536 44.6232 26.1884 43.9565 24.3623 43.9565C23.2609 43.9565 22.2754 44.2174 21.4058 44.7101C20.5362 45.2029 19.8696 45.8406 19.4058 46.5652V45.5507C19.4058 45.1449 19.2029 44.8261 18.7971 44.5652C18.3913 44.3043 17.8696 44.1884 17.2319 44.1884C16.5942 44.1884 16.0725 44.3043 15.6377 44.5652C15.2029 44.7971 15 45.1449 15 45.5507ZM20.7101 55.8696C20.0435 55.2609 19.7246 54.7391 19.7246 54.2753L19.6957 50.913C19.6957 50.0145 20.0145 49.2609 20.6522 48.7101C21.2899 48.1594 22.0145 47.8696 22.8551 47.8696C23.7536 47.8696 24.5362 48.1884 25.2029 48.7971C25.8696 49.4348 26.1884 50.1304 26.1884 50.913V53.6667C26.1884 54.4493 25.8696 55.1739 25.2029 55.8116C24.5362 56.4493 23.7826 56.7681 22.942 56.7681C22.1014 56.7681 21.3768 56.4782 20.7101 55.8696ZM32.8551 59.058V38.2464C32.8551 37.8696 33.058 37.5797 33.4928 37.3478C33.9276 37.1159 34.5073 37 35.203 37C35.8696 37 36.4204 37.1159 36.8841 37.3478C37.3479 37.5797 37.5798 37.8696 37.5798 38.2464V59.058C37.5798 59.3768 37.3479 59.6667 36.8551 59.9275C36.3624 60.1884 35.8117 60.3333 35.203 60.3333C34.5363 60.3333 33.9856 60.2174 33.5508 59.9565C33.087 59.6956 32.8551 59.4058 32.8551 59.058ZM58.1594 63.9855C57.3478 63.9855 56.942 64.6232 56.942 65.8985C56.942 66.6811 57.1159 67.2029 57.5507 67.5217C57.8985 67.7826 58.4493 67.9275 59.1449 67.9275C59.9565 67.9275 60.6811 67.8406 61.3768 67.6956C62.0724 67.5217 62.6232 67.3768 63.1159 67.1739C63.5797 66.971 64.0435 66.6811 64.5072 66.2464C64.971 65.8116 65.3188 65.4637 65.5797 65.1739C65.8406 64.884 66.1304 64.4203 66.4493 63.8116C66.6981 63.3554 66.8727 62.9883 67.005 62.7101L67.0051 62.7099C67.0577 62.5993 67.1037 62.5027 67.1449 62.4203C67.2898 62.1304 67.4927 61.6087 67.7826 60.8261L68.3913 59.3188L73.7246 46.6811C73.8116 46.5072 73.8406 46.3333 73.8406 46.1594C73.8406 45.5797 73.4638 45.0869 72.7101 44.6522C71.9565 44.2174 71.2609 43.9855 70.6232 43.9855C69.9565 43.9855 69.5507 44.2464 69.3768 44.7391L65.8406 54.8261L61.4638 44.7391C61.2898 44.2174 60.8261 43.9855 60.1014 43.9855C59.4348 43.9855 58.7681 44.1884 58.0435 44.6232C57.3188 45.0579 56.971 45.5217 56.971 46.0724C56.971 46.2464 57.029 46.4203 57.1159 46.6522L63.4058 59.0579C63.2609 60.8261 62.6522 62.1014 61.5507 62.855C60.4203 63.6087 59.2898 63.9855 58.1594 63.9855ZM74.2174 55.9855C74.2174 54.1884 74.942 52.942 76.4203 52.2174C77.8695 51.4927 79.9855 51.1159 82.7391 51.1159H84.2463V50.6522C84.2463 49.7826 83.9855 49.029 83.4637 48.3913C82.942 47.7536 82.1304 47.4348 81.029 47.4348C79.9275 47.4348 79 47.6377 78.2174 48.0145C77.4348 48.3913 77 48.5942 76.855 48.5942C76.3623 48.5942 75.9855 48.3623 75.6956 47.8985C75.4058 47.4348 75.2608 46.942 75.2608 46.3913C75.2608 45.7246 75.8985 45.1739 77.1449 44.6811C78.3913 44.1884 79.7246 43.9565 81.1159 43.9565C83.7826 43.9565 85.7536 44.5942 87.0579 45.8406C88.3623 47.1159 89 48.6811 89 50.5942V58.942C89 59.3188 88.7681 59.6667 88.3333 59.9275C87.8985 60.1884 87.3478 60.3333 86.6811 60.3333C86.0724 60.3333 85.5507 60.1884 85.1449 59.8985C84.7391 59.6087 84.5362 59.2609 84.5362 58.8551V57.8116C82.855 59.7246 81 60.6522 78.971 60.6522C77.5797 60.6522 76.4492 60.2464 75.5507 59.4638C74.6522 58.6811 74.2174 57.4927 74.2174 55.9855ZM78.913 55.4348C78.913 56.0145 79.0869 56.4493 79.4348 56.7391C79.7826 57.029 80.2464 57.1739 80.8261 57.1739C81.6087 57.1739 82.3623 56.8551 83.0869 56.2174C83.8116 55.5797 84.1884 54.8551 84.1884 54.1014V53.4058H83.6376C82.1594 53.4058 81 53.5507 80.1594 53.8116C79.3478 54.0725 78.913 54.6232 78.913 55.4348ZM54.6811 54.4203C55.5507 53.9275 55.8695 53.1739 55.8115 52.4203C55.8695 51.6957 55.5507 50.942 54.6811 50.4203C53.1305 49.5508 51.5871 48.6813 50.0437 47.8118C48.5001 46.9422 46.9566 46.0725 45.4057 45.2029C43.8695 44.3623 41.9275 45.4348 41.9275 47.2029V57.6377C41.9275 59.4058 43.8695 60.5073 45.4057 59.6377C46.9566 58.7681 48.5001 57.8984 50.0437 57.0288C51.5871 56.1593 53.1305 55.2898 54.6811 54.4203Z" fill="#F3F4E3"/>
</svg>
