<svg width="699" height="232" viewBox="0 0 699 232" fill="none" xmlns="http://www.w3.org/2000/svg">
<path d="M350 163.442H266.442C257.914 163.442 251 156.528 251 148M350 163.442H433.558C442.086 163.442 449 156.528 449 148M350 163.442V231" stroke="#1D1A1B" stroke-width="2" stroke-linecap="round"/>
<path d="M570.814 66.254L571.934 65.666C571.234 64.616 570.226 62.166 570.226 59.688C570.226 57.21 571.234 54.76 571.934 53.71L570.814 53.122C569.778 54.648 568.672 56.776 568.672 59.688C568.672 62.6 569.778 64.728 570.814 66.254ZM582.605 62.796L581.961 61.424C581.387 62.04 580.491 62.6 579.203 62.6C577.271 62.6 575.969 61.242 575.969 59.156C575.969 56.874 577.411 55.768 579.091 55.768C580.463 55.768 581.555 56.51 581.835 56.874L582.479 55.39C582.087 54.998 580.995 54.2 579.105 54.2C576.305 54.2 574.093 56.118 574.093 59.184C574.093 62.25 576.277 64.168 579.105 64.168C581.009 64.168 582.059 63.384 582.605 62.796ZM585.492 54.34V64H590.672V62.488H587.298V54.34H585.492ZM593.461 54.34V64H595.281V54.34H593.461ZM598.887 54.34V64H604.963V62.488H600.707V59.744H604.613V58.246H600.707V55.852H604.851V54.34H598.887ZM609.919 56.874L614.819 64H616.653V54.34H614.875V59.1C614.875 60.248 614.903 61.382 614.903 61.382L610.101 54.34H608.169V64H609.947V59.254C609.947 58.106 609.919 56.874 609.919 56.874ZM622.058 55.81V64H623.864V55.81H626.51V54.34H619.398V55.81H622.058ZM628.646 65.666L629.78 66.254C630.802 64.728 631.922 62.6 631.922 59.688C631.922 56.776 630.802 54.648 629.78 53.122L628.646 53.71C629.346 54.76 630.354 57.21 630.354 59.688C630.354 62.166 629.346 64.616 628.646 65.666Z" fill="#999999"/>
<path d="M335.814 18.254L336.934 17.666C336.234 16.616 335.226 14.166 335.226 11.688C335.226 9.21 336.234 6.76 336.934 5.71L335.814 5.122C334.778 6.648 333.672 8.776 333.672 11.688C333.672 14.6 334.778 16.728 335.814 18.254ZM348.31 8.706L348.87 16H350.662L349.836 6.34H347.526L345.16 13.27H345.132L342.794 6.34H340.4L339.602 16H341.352L341.87 8.706H341.912L344.432 16.042H345.706L348.282 8.706H348.31ZM353.883 6.34V16H359.959V14.488H355.703V11.744H359.609V10.246H355.703V7.852H359.847V6.34H353.883ZM362.576 17.666L363.71 18.254C364.732 16.728 365.852 14.6 365.852 11.688C365.852 8.776 364.732 6.648 363.71 5.122L362.576 5.71C363.276 6.76 364.284 9.21 364.284 11.688C364.284 14.166 363.276 16.616 362.576 17.666Z" fill="#999999"/>
<rect x="251" y="84" width="198" height="28" rx="8" fill="#0B0B0B"/>
<path d="M294.452 92.34H292.632V97.954C292.632 98.696 292.59 99.354 292.212 99.844C291.862 100.292 291.33 100.572 290.588 100.572C289.86 100.572 289.314 100.292 288.964 99.844C288.586 99.354 288.558 98.696 288.558 97.954V92.34H286.724V98.01C286.724 99.298 286.906 100.236 287.578 101.006C288.236 101.748 289.244 102.168 290.588 102.168C291.932 102.168 292.94 101.748 293.598 101.006C294.27 100.236 294.452 99.298 294.452 98.01V92.34ZM297.99 92.34V102H299.81V92.34H297.99ZM308.526 90.912L302.73 102.84L303.822 103.344L309.632 91.402L308.526 90.912ZM320.191 92.34H318.371V97.954C318.371 98.696 318.329 99.354 317.951 99.844C317.601 100.292 317.069 100.572 316.327 100.572C315.599 100.572 315.053 100.292 314.703 99.844C314.325 99.354 314.297 98.696 314.297 97.954V92.34H312.463V98.01C312.463 99.298 312.645 100.236 313.317 101.006C313.975 101.748 314.983 102.168 316.327 102.168C317.671 102.168 318.679 101.748 319.337 101.006C320.009 100.236 320.191 99.298 320.191 98.01V92.34ZM327.007 98.15L329.205 102H331.375L328.169 97.016L331.165 92.34H329.023L326.993 95.826L324.963 92.34H322.821L325.817 97.002L322.611 102H324.767L327.007 98.15ZM338.396 92.34V102H341.49C343.17 102 344.416 101.454 345.158 100.796C345.914 100.138 346.698 99.004 346.698 97.156C346.698 95.322 345.914 94.216 345.158 93.558C344.416 92.886 343.17 92.34 341.49 92.34H338.396ZM341.56 100.46H340.216V93.866H341.56C342.61 93.866 343.38 94.216 343.856 94.65C344.318 95.098 344.822 95.882 344.822 97.17C344.822 98.472 344.318 99.214 343.856 99.662C343.38 100.11 342.61 100.46 341.56 100.46ZM349.796 92.34V102H355.872V100.488H351.616V97.744H355.522V96.246H351.616V93.852H355.76V92.34H349.796ZM363.404 96.666L361.794 96.008C361.29 95.798 360.688 95.532 360.688 94.832C360.688 94.118 361.318 93.726 362.116 93.726C362.942 93.726 363.684 94.132 364.3 94.692L365.168 93.39C364.594 92.802 363.6 92.228 362.228 92.228C360.198 92.228 358.882 93.39 358.882 95.07C358.882 96.246 359.582 96.988 360.632 97.408L362.144 98.01C362.97 98.346 363.474 98.598 363.474 99.354C363.474 100.194 362.858 100.628 361.962 100.628C361.052 100.628 360.142 100.18 359.386 99.354L358.518 100.67C359.148 101.398 360.282 102.168 361.934 102.168C363.978 102.168 365.294 100.978 365.294 99.186C365.294 97.982 364.762 97.226 363.404 96.666ZM368.359 92.34V102H370.179V92.34H368.359ZM378.363 98.094H380.687V99.872C380.687 99.872 380.099 100.6 378.321 100.6C376.529 100.6 375.143 99.34 375.143 97.17C375.143 95 376.487 93.74 378.251 93.74C379.665 93.74 380.491 94.398 380.981 94.958L382.199 93.88C381.863 93.53 380.743 92.2 378.251 92.2C375.535 92.2 373.267 94.076 373.267 97.184C373.267 100.432 375.535 102.168 378.279 102.168C380.869 102.168 382.115 100.88 382.451 100.558V96.68H378.363V98.094ZM387.51 94.874L392.41 102H394.244V92.34H392.466V97.1C392.466 98.248 392.494 99.382 392.494 99.382L387.692 92.34H385.76V102H387.538V97.254C387.538 96.106 387.51 94.874 387.51 94.874ZM397.872 92.34V102H403.948V100.488H399.692V97.744H403.598V96.246H399.692V93.852H403.836V92.34H397.872ZM409.842 98.08L412.124 102H414.252L411.648 97.856C412.824 97.492 413.734 96.82 413.734 95.154C413.734 94.23 413.3 93.488 412.698 93.026C412.096 92.564 411.284 92.34 410.262 92.34H407.154V102H408.974V98.08H409.842ZM409.912 96.652H408.96V93.768H409.912C410.5 93.768 410.948 93.81 411.298 94.076C411.662 94.328 411.858 94.678 411.858 95.21C411.858 95.756 411.662 96.078 411.298 96.344C410.948 96.61 410.5 96.652 409.912 96.652Z" fill="#E9E9E9"/>
<rect x="251" y="36" width="198" height="28" rx="8" fill="#0B0B0B"/>
<path d="M277.033 44.34V54H278.867V50.192H280.141C281.107 50.192 281.947 49.954 282.563 49.436C283.193 48.918 283.571 48.218 283.571 47.238C283.571 46.258 283.193 45.572 282.563 45.054C281.947 44.536 281.107 44.34 280.141 44.34H277.033ZM279.917 48.764H278.853V45.768H279.875C280.435 45.768 280.813 45.866 281.121 46.09C281.429 46.314 281.695 46.706 281.695 47.238C281.695 47.784 281.471 48.176 281.163 48.4C280.855 48.624 280.477 48.764 279.917 48.764ZM289.167 50.08L291.449 54H293.577L290.973 49.856C292.149 49.492 293.059 48.82 293.059 47.154C293.059 46.23 292.625 45.488 292.023 45.026C291.421 44.564 290.609 44.34 289.587 44.34H286.479V54H288.299V50.08H289.167ZM289.237 48.652H288.285V45.768H289.237C289.825 45.768 290.273 45.81 290.623 46.076C290.987 46.328 291.183 46.678 291.183 47.21C291.183 47.756 290.987 48.078 290.623 48.344C290.273 48.61 289.825 48.652 289.237 48.652ZM300.679 54.168C303.479 54.168 305.733 52.292 305.733 49.184C305.733 46.076 303.479 44.2 300.679 44.2C297.893 44.2 295.625 46.076 295.625 49.184C295.625 52.292 297.893 54.168 300.679 54.168ZM303.857 49.17C303.857 51.27 302.471 52.572 300.679 52.572C298.901 52.572 297.501 51.27 297.501 49.17C297.501 47.07 298.887 45.782 300.679 45.782C302.471 45.782 303.857 47.07 303.857 49.17ZM307.289 55.218L307.233 56.562C307.317 56.618 307.863 56.758 308.479 56.758C309.249 56.758 309.809 56.422 310.131 56.002C310.467 55.568 310.649 54.882 310.649 53.888V44.34H308.843V53.93C308.843 54.728 308.717 55.33 308.045 55.33C307.723 55.33 307.471 55.288 307.289 55.218ZM314.269 44.34V54H320.345V52.488H316.089V49.744H319.995V48.246H316.089V45.852H320.233V44.34H314.269ZM331.544 52.796L330.9 51.424C330.326 52.04 329.43 52.6 328.142 52.6C326.21 52.6 324.908 51.242 324.908 49.156C324.908 46.874 326.35 45.768 328.03 45.768C329.402 45.768 330.494 46.51 330.774 46.874L331.418 45.39C331.026 44.998 329.934 44.2 328.044 44.2C325.244 44.2 323.032 46.118 323.032 49.184C323.032 52.25 325.216 54.168 328.044 54.168C329.948 54.168 330.998 53.384 331.544 52.796ZM336.278 45.81V54H338.084V45.81H340.73V44.34H333.618V45.81H336.278ZM356.253 46.706L356.813 54H358.605L357.779 44.34H355.469L353.103 51.27H353.075L350.737 44.34H348.343L347.545 54H349.295L349.813 46.706H349.855L352.375 54.042H353.649L356.225 46.706H356.253ZM367.355 51.774L368.195 54H370.183L366.389 44.326H364.625L360.831 54H362.721L363.561 51.774H367.355ZM364.009 50.318L365.465 46.412L366.907 50.318H364.009ZM374.566 46.874L379.466 54H381.3V44.34H379.522V49.1C379.522 50.248 379.55 51.382 379.55 51.382L374.748 44.34H372.816V54H374.594V49.254C374.594 48.106 374.566 46.874 374.566 46.874ZM390.457 51.774L391.297 54H393.285L389.491 44.326H387.727L383.933 54H385.823L386.663 51.774H390.457ZM387.111 50.318L388.567 46.412L390.009 50.318H387.111ZM400.222 50.094H402.546V51.872C402.546 51.872 401.958 52.6 400.18 52.6C398.388 52.6 397.002 51.34 397.002 49.17C397.002 47 398.346 45.74 400.11 45.74C401.524 45.74 402.35 46.398 402.84 46.958L404.058 45.88C403.722 45.53 402.602 44.2 400.11 44.2C397.394 44.2 395.126 46.076 395.126 49.184C395.126 52.432 397.394 54.168 400.138 54.168C402.728 54.168 403.974 52.88 404.31 52.558V48.68H400.222V50.094ZM407.619 44.34V54H413.695V52.488H409.439V49.744H413.345V48.246H409.439V45.852H413.583V44.34H407.619ZM419.589 50.08L421.871 54H423.999L421.395 49.856C422.571 49.492 423.481 48.82 423.481 47.154C423.481 46.23 423.047 45.488 422.445 45.026C421.843 44.564 421.031 44.34 420.009 44.34H416.901V54H418.721V50.08H419.589ZM419.659 48.652H418.707V45.768H419.659C420.247 45.768 420.695 45.81 421.045 46.076C421.409 46.328 421.605 46.678 421.605 47.21C421.605 47.756 421.409 48.078 421.045 48.344C420.695 48.61 420.247 48.652 419.659 48.652Z" fill="#E9E9E9"/>
<rect opacity="0.1" y="84" width="198" height="28" rx="8" fill="#1D1A1B"/>
<path d="M8.90639 92.34V102H10.7264V98.08H14.3804V96.582H10.7264V93.866H14.6044V92.34H8.90639ZM25.4221 92.34H23.6021V97.954C23.6021 98.696 23.5601 99.354 23.1821 99.844C22.8321 100.292 22.3001 100.572 21.5581 100.572C20.8301 100.572 20.2841 100.292 19.9341 99.844C19.5561 99.354 19.5281 98.696 19.5281 97.954V92.34H17.6941V98.01C17.6941 99.298 17.8761 100.236 18.5481 101.006C19.2061 101.748 20.2141 102.168 21.5581 102.168C22.9021 102.168 23.9101 101.748 24.5681 101.006C25.2401 100.236 25.4221 99.298 25.4221 98.01V92.34ZM28.9598 92.34V102H34.1398V100.488H30.7658V92.34H28.9598ZM36.9288 92.34V102H42.1088V100.488H38.7348V92.34H36.9288ZM43.6126 97.492V98.92H47.2666V97.492H43.6126ZM54.6226 96.666L53.0126 96.008C52.5086 95.798 51.9066 95.532 51.9066 94.832C51.9066 94.118 52.5366 93.726 53.3346 93.726C54.1606 93.726 54.9026 94.132 55.5186 94.692L56.3866 93.39C55.8126 92.802 54.8186 92.228 53.4466 92.228C51.4166 92.228 50.1006 93.39 50.1006 95.07C50.1006 96.246 50.8006 96.988 51.8506 97.408L53.3626 98.01C54.1886 98.346 54.6926 98.598 54.6926 99.354C54.6926 100.194 54.0766 100.628 53.1806 100.628C52.2706 100.628 51.3606 100.18 50.6046 99.354L49.7366 100.67C50.3666 101.398 51.5006 102.168 53.1526 102.168C55.1966 102.168 56.5126 100.978 56.5126 99.186C56.5126 97.982 55.9806 97.226 54.6226 96.666ZM61.2195 93.81V102H63.0255V93.81H65.6715V92.34H58.5595V93.81H61.2195ZM72.9405 99.774L73.7805 102H75.7685L71.9745 92.326H70.2105L66.4165 102H68.3065L69.1465 99.774H72.9405ZM69.5945 98.318L71.0505 94.412L72.4925 98.318H69.5945ZM86.1216 100.796L85.4776 99.424C84.9036 100.04 84.0076 100.6 82.7196 100.6C80.7876 100.6 79.4856 99.242 79.4856 97.156C79.4856 94.874 80.9276 93.768 82.6076 93.768C83.9796 93.768 85.0716 94.51 85.3516 94.874L85.9956 93.39C85.6036 92.998 84.5116 92.2 82.6216 92.2C79.8216 92.2 77.6096 94.118 77.6096 97.184C77.6096 100.25 79.7936 102.168 82.6216 102.168C84.5256 102.168 85.5756 101.384 86.1216 100.796ZM91.6968 97.506L94.5108 102H96.6948L92.8448 96.218L96.4428 92.34H94.2728L90.8148 96.162V92.34H89.0088V102H90.8148V98.444L91.6968 97.506ZM103.593 92.34V102H106.687C108.367 102 109.613 101.454 110.355 100.796C111.111 100.138 111.895 99.004 111.895 97.156C111.895 95.322 111.111 94.216 110.355 93.558C109.613 92.886 108.367 92.34 106.687 92.34H103.593ZM106.757 100.46H105.413V93.866H106.757C107.807 93.866 108.577 94.216 109.053 94.65C109.515 95.098 110.019 95.882 110.019 97.17C110.019 98.472 109.515 99.214 109.053 99.662C108.577 100.11 107.807 100.46 106.757 100.46ZM114.994 92.34V102H121.07V100.488H116.814V97.744H120.72V96.246H116.814V93.852H120.958V92.34H114.994ZM123.31 92.34L126.88 102.014H128.504L132.074 92.34H130.226L127.734 99.522L125.242 92.34H123.31ZM134.733 92.34V102H140.809V100.488H136.553V97.744H140.459V96.246H136.553V93.852H140.697V92.34H134.733ZM144.015 92.34V102H149.195V100.488H145.821V92.34H144.015ZM156.164 102.168C158.964 102.168 161.218 100.292 161.218 97.184C161.218 94.076 158.964 92.2 156.164 92.2C153.378 92.2 151.11 94.076 151.11 97.184C151.11 100.292 153.378 102.168 156.164 102.168ZM159.342 97.17C159.342 99.27 157.956 100.572 156.164 100.572C154.386 100.572 152.986 99.27 152.986 97.17C152.986 95.07 154.372 93.782 156.164 93.782C157.956 93.782 159.342 95.07 159.342 97.17ZM164.314 92.34V102H166.148V98.192H167.422C168.388 98.192 169.228 97.954 169.844 97.436C170.474 96.918 170.852 96.218 170.852 95.238C170.852 94.258 170.474 93.572 169.844 93.054C169.228 92.536 168.388 92.34 167.422 92.34H164.314ZM167.198 96.764H166.134V93.768H167.156C167.716 93.768 168.094 93.866 168.402 94.09C168.71 94.314 168.976 94.706 168.976 95.238C168.976 95.784 168.752 96.176 168.444 96.4C168.136 96.624 167.758 96.764 167.198 96.764ZM173.76 92.34V102H179.836V100.488H175.58V97.744H179.486V96.246H175.58V93.852H179.724V92.34H173.76ZM185.729 98.08L188.011 102H190.139L187.535 97.856C188.711 97.492 189.621 96.82 189.621 95.154C189.621 94.23 189.187 93.488 188.585 93.026C187.983 92.564 187.171 92.34 186.149 92.34H183.041V102H184.861V98.08H185.729ZM185.799 96.652H184.847V93.768H185.799C186.387 93.768 186.835 93.81 187.185 94.076C187.549 94.328 187.745 94.678 187.745 95.21C187.745 95.756 187.549 96.078 187.185 96.344C186.835 96.61 186.387 96.652 185.799 96.652Z" fill="#1D1A1B"/>
<rect opacity="0.1" x="501" y="84" width="198" height="28" rx="8" fill="#1D1A1B"/>
<path d="M533.143 92.34V102H534.977V98.192H536.251C537.217 98.192 538.057 97.954 538.673 97.436C539.303 96.918 539.681 96.218 539.681 95.238C539.681 94.258 539.303 93.572 538.673 93.054C538.057 92.536 537.217 92.34 536.251 92.34H533.143ZM536.027 96.764H534.963V93.768H535.985C536.545 93.768 536.923 93.866 537.231 94.09C537.539 94.314 537.805 94.706 537.805 95.238C537.805 95.784 537.581 96.176 537.273 96.4C536.965 96.624 536.587 96.764 536.027 96.764ZM545.276 98.08L547.558 102H549.686L547.082 97.856C548.258 97.492 549.168 96.82 549.168 95.154C549.168 94.23 548.734 93.488 548.132 93.026C547.53 92.564 546.718 92.34 545.696 92.34H542.588V102H544.408V98.08H545.276ZM545.346 96.652H544.394V93.768H545.346C545.934 93.768 546.382 93.81 546.732 94.076C547.096 94.328 547.292 94.678 547.292 95.21C547.292 95.756 547.096 96.078 546.732 96.344C546.382 96.61 545.934 96.652 545.346 96.652ZM556.789 102.168C559.589 102.168 561.843 100.292 561.843 97.184C561.843 94.076 559.589 92.2 556.789 92.2C554.003 92.2 551.735 94.076 551.735 97.184C551.735 100.292 554.003 102.168 556.789 102.168ZM559.967 97.17C559.967 99.27 558.581 100.572 556.789 100.572C555.011 100.572 553.611 99.27 553.611 97.17C553.611 95.07 554.997 93.782 556.789 93.782C558.581 93.782 559.967 95.07 559.967 97.17ZM564.952 92.34V102H568.046C569.726 102 570.972 101.454 571.714 100.796C572.47 100.138 573.254 99.004 573.254 97.156C573.254 95.322 572.47 94.216 571.714 93.558C570.972 92.886 569.726 92.34 568.046 92.34H564.952ZM568.116 100.46H566.772V93.866H568.116C569.166 93.866 569.936 94.216 570.412 94.65C570.874 95.098 571.378 95.882 571.378 97.17C571.378 98.472 570.874 99.214 570.412 99.662C569.936 100.11 569.166 100.46 568.116 100.46ZM584.011 92.34H582.191V97.954C582.191 98.696 582.149 99.354 581.771 99.844C581.421 100.292 580.889 100.572 580.147 100.572C579.419 100.572 578.873 100.292 578.523 99.844C578.145 99.354 578.117 98.696 578.117 97.954V92.34H576.283V98.01C576.283 99.298 576.465 100.236 577.137 101.006C577.795 101.748 578.803 102.168 580.147 102.168C581.491 102.168 582.499 101.748 583.157 101.006C583.829 100.236 584.011 99.298 584.011 98.01V92.34ZM595.543 100.796L594.899 99.424C594.325 100.04 593.429 100.6 592.141 100.6C590.209 100.6 588.907 99.242 588.907 97.156C588.907 94.874 590.349 93.768 592.029 93.768C593.401 93.768 594.493 94.51 594.773 94.874L595.417 93.39C595.025 92.998 593.933 92.2 592.043 92.2C589.243 92.2 587.031 94.118 587.031 97.184C587.031 100.25 589.215 102.168 592.043 102.168C593.947 102.168 594.997 101.384 595.543 100.796ZM600.276 93.81V102H602.082V93.81H604.728V92.34H597.616V93.81H600.276ZM616.443 102.168C619.243 102.168 621.497 100.292 621.497 97.184C621.497 94.076 619.243 92.2 616.443 92.2C613.657 92.2 611.389 94.076 611.389 97.184C611.389 100.292 613.657 102.168 616.443 102.168ZM619.621 97.17C619.621 99.27 618.235 100.572 616.443 100.572C614.665 100.572 613.265 99.27 613.265 97.17C613.265 95.07 614.651 93.782 616.443 93.782C618.235 93.782 619.621 95.07 619.621 97.17ZM630.087 94.79L632.159 102.014H633.923L636.709 92.34H634.861L632.985 99.41L631.011 92.34H629.177L627.189 99.41L625.299 92.34H623.409L626.195 102.014H628.001L630.087 94.79ZM641.148 94.874L646.048 102H647.882V92.34H646.104V97.1C646.104 98.248 646.132 99.382 646.132 99.382L641.33 92.34H639.398V102H641.176V97.254C641.176 96.106 641.148 94.874 641.148 94.874ZM651.51 92.34V102H657.586V100.488H653.33V97.744H657.236V96.246H653.33V93.852H657.474V92.34H651.51ZM663.479 98.08L665.761 102H667.889L665.285 97.856C666.461 97.492 667.371 96.82 667.371 95.154C667.371 94.23 666.937 93.488 666.335 93.026C665.733 92.564 664.921 92.34 663.899 92.34H660.791V102H662.611V98.08H663.479ZM663.549 96.652H662.597V93.768H663.549C664.137 93.768 664.585 93.81 664.935 94.076C665.299 94.328 665.495 94.678 665.495 95.21C665.495 95.756 665.299 96.078 664.935 96.344C664.585 96.61 664.137 96.652 663.549 96.652Z" fill="#1D1A1B"/>
</svg>
