<svg width="64" height="65" viewBox="0 0 64 65" fill="none" xmlns="http://www.w3.org/2000/svg">
<path d="M0 15.4088C0 6.92573 6.87691 0.0488281 15.36 0.0488281H48.64C57.1231 0.0488281 64 6.92573 64 15.4088V48.6888C64 57.1719 57.1231 64.0488 48.64 64.0488H15.36C6.87691 64.0488 0 57.1719 0 48.6888V15.4088Z" fill="#FFBAB1"/>
<path d="M9.72803 21.809C9.72803 20.3952 10.8742 19.249 12.288 19.249H51.456C52.8699 19.249 54.016 20.3952 54.016 21.809V42.289C54.016 43.7029 52.8699 44.849 51.456 44.849H12.288C10.8742 44.849 9.72803 43.7029 9.72803 42.289V21.809Z" fill="#FE8170"/>
<path d="M14.8481 25.7769C14.8481 24.7165 15.7078 23.8569 16.7681 23.8569C17.8285 23.8569 18.6881 24.7165 18.6881 25.7769C18.6881 26.8373 17.8285 27.6969 16.7681 27.6969C15.7078 27.6969 14.8481 26.8373 14.8481 25.7769Z" fill="#FFCCCC"/>
<path d="M19.7121 25.7769C19.7121 24.7165 20.5718 23.8569 21.6321 23.8569C22.6925 23.8569 23.5521 24.7165 23.5521 25.7769C23.5521 26.8373 22.6925 27.6969 21.6321 27.6969C20.5718 27.6969 19.7121 26.8373 19.7121 25.7769Z" fill="#FFCCCC"/>
<path d="M24.8321 25.7769C24.8321 24.7165 25.6918 23.8569 26.7521 23.8569C27.8125 23.8569 28.6721 24.7165 28.6721 25.7769C28.6721 26.8373 27.8125 27.6969 26.7521 27.6969C25.6918 27.6969 24.8321 26.8373 24.8321 25.7769Z" fill="#FFCCCC"/>
<path d="M29.9521 25.7769C29.9521 24.7165 30.8118 23.8569 31.8721 23.8569C32.9325 23.8569 33.7921 24.7165 33.7921 25.7769C33.7921 26.8373 32.9325 27.6969 31.8721 27.6969C30.8118 27.6969 29.9521 26.8373 29.9521 25.7769Z" fill="#FFCCCC"/>
<path d="M35.0721 25.7769C35.0721 24.7165 35.9318 23.8569 36.9921 23.8569C38.0525 23.8569 38.9121 24.7165 38.9121 25.7769C38.9121 26.8373 38.0525 27.6969 36.9921 27.6969C35.9318 27.6969 35.0721 26.8373 35.0721 25.7769Z" fill="#FFCCCC"/>
<path d="M40.1921 25.7769C40.1921 24.7165 41.0518 23.8569 42.1121 23.8569C43.1725 23.8569 44.0321 24.7165 44.0321 25.7769C44.0321 26.8373 43.1725 27.6969 42.1121 27.6969C41.0518 27.6969 40.1921 26.8373 40.1921 25.7769Z" fill="#FFCCCC"/>
<path d="M45.3121 25.7769C45.3121 24.7165 46.1718 23.8569 47.2321 23.8569C48.2925 23.8569 49.1521 24.7165 49.1521 25.7769C49.1521 26.8373 48.2925 27.6969 47.2321 27.6969C46.1718 27.6969 45.3121 26.8373 45.3121 25.7769Z" fill="#FFCCCC"/>
<path d="M17.1521 32.1769C17.1521 31.1165 18.0118 30.2569 19.0721 30.2569C20.1325 30.2569 20.9921 31.1165 20.9921 32.1769C20.9921 33.2373 20.1325 34.0969 19.0721 34.0969C18.0118 34.0969 17.1521 33.2373 17.1521 32.1769Z" fill="#FFCCCC"/>
<path d="M22.0161 32.1769C22.0161 31.1165 22.8758 30.2569 23.9361 30.2569C24.9965 30.2569 25.8561 31.1165 25.8561 32.1769C25.8561 33.2373 24.9965 34.0969 23.9361 34.0969C22.8758 34.0969 22.0161 33.2373 22.0161 32.1769Z" fill="#FFCCCC"/>
<path d="M27.1361 32.1769C27.1361 31.1165 27.9958 30.2569 29.0561 30.2569C30.1165 30.2569 30.9761 31.1165 30.9761 32.1769C30.9761 33.2373 30.1165 34.0969 29.0561 34.0969C27.9958 34.0969 27.1361 33.2373 27.1361 32.1769Z" fill="#FFCCCC"/>
<path d="M32.2561 32.1769C32.2561 31.1165 33.1158 30.2569 34.1761 30.2569C35.2365 30.2569 36.0961 31.1165 36.0961 32.1769C36.0961 33.2373 35.2365 34.0969 34.1761 34.0969C33.1158 34.0969 32.2561 33.2373 32.2561 32.1769Z" fill="#FFCCCC"/>
<path d="M37.3761 32.1769C37.3761 31.1165 38.2358 30.2569 39.2961 30.2569C40.3565 30.2569 41.2161 31.1165 41.2161 32.1769C41.2161 33.2373 40.3565 34.0969 39.2961 34.0969C38.2358 34.0969 37.3761 33.2373 37.3761 32.1769Z" fill="#FFCCCC"/>
<path d="M42.4961 32.1769C42.4961 31.1165 43.3558 30.2569 44.4161 30.2569C45.4765 30.2569 46.3361 31.1165 46.3361 32.1769C46.3361 33.2373 45.4765 34.0969 44.4161 34.0969C43.3558 34.0969 42.4961 33.2373 42.4961 32.1769Z" fill="#FFCCCC"/>
<path d="M19.9681 38.3209C19.9681 37.2605 20.8278 36.4009 21.8881 36.4009H41.8561C42.9165 36.4009 43.7761 37.2605 43.7761 38.3209C43.7761 39.3813 42.9165 40.2409 41.8561 40.2409H21.8881C20.8278 40.2409 19.9681 39.3813 19.9681 38.3209Z" fill="#FFCCCC"/>
</svg>
