<svg width="16" height="16" viewBox="0 0 16 16" fill="none" xmlns="http://www.w3.org/2000/svg">
<path fill-rule="evenodd" clip-rule="evenodd" d="M8 3L0 1V12.7143L8 15L16 12.7143V1L8 3ZM15 2.28078L8 4.03078L1 2.28078V11.96L8 13.96L15 11.96V2.28078Z" fill="black"/>
<path fill-rule="evenodd" clip-rule="evenodd" d="M7.5 14L7.5 3H8.5V14H7.5Z" fill="black"/>
<path fill-rule="evenodd" clip-rule="evenodd" d="M13.8637 5.99988L10 7.03516V6.03516L13.8637 4.99988V5.99988Z" fill="black"/>
<path fill-rule="evenodd" clip-rule="evenodd" d="M13.8637 7.99988L10 9.03516V8.03516L13.8637 6.99988V7.99988Z" fill="black"/>
<path fill-rule="evenodd" clip-rule="evenodd" d="M13.8637 9.99988L10 11.0352V10.0352L13.8637 8.99988V9.99988Z" fill="black"/>
<path fill-rule="evenodd" clip-rule="evenodd" d="M2.00007 5.99988L5.86377 7.03516V6.03516L2.00007 4.99988V5.99988Z" fill="black"/>
<path fill-rule="evenodd" clip-rule="evenodd" d="M2.00007 7.99988L5.86377 9.03516V8.03516L2.00007 6.99988V7.99988Z" fill="black"/>
<path fill-rule="evenodd" clip-rule="evenodd" d="M2.00007 9.99988L5.86377 11.0352V10.0352L2.00007 8.99988V9.99988Z" fill="black"/>
</svg>
