<svg width="16" height="16" viewBox="0 0 16 16" fill="none" xmlns="http://www.w3.org/2000/svg">
<path d="M15.5 6.99902L12 9.18702V8.99902C12 8.39202 11.725 7.85402 11.297 7.48802C12.313 6.87502 13 5.77102 13 4.49902C13 2.56602 11.434 0.999023 9.5 0.999023C7.567 0.999023 6 2.56602 6 4.49902C6 5.47902 6.405 6.36302 7.055 6.99902H5.222C5.7 6.46702 6 5.77102 6 4.99902C6 3.34202 4.657 1.99902 3 1.99902C1.343 1.99902 0 3.34202 0 4.99902C0 5.90302 0.408 6.70402 1.041 7.25402C0.423 7.59502 0 8.24402 0 8.99902V12.999C0 14.103 0.896 14.999 2 14.999H10C11.105 14.999 12 14.103 12 12.999V12.811L15.5 14.999C15.775 14.999 16 14.774 16 14.499V7.49902C16 7.22302 15.775 6.99902 15.5 6.99902ZM1 4.99902C1 3.89502 1.896 2.99902 3 2.99902C4.104 2.99902 5 3.89502 5 4.99902C5 6.10302 4.104 6.99902 3 6.99902C1.896 6.99902 1 6.10402 1 4.99902ZM11 9.99902V11.999V12.999C11 13.551 10.553 13.999 10 13.999H2C1.448 13.999 1 13.551 1 12.999V8.99902C1 8.44602 1.448 7.99902 2 7.99902H10C10.553 7.99902 11 8.44602 11 8.99902V9.99902ZM9.5 6.99902C8.12 6.99902 7 5.88002 7 4.49902C7 3.11802 8.12 1.99902 9.5 1.99902C10.881 1.99902 12 3.11802 12 4.49902C12 5.88002 10.881 6.99902 9.5 6.99902ZM15 13.499L12 11.999V9.99902L15 8.49902V13.499Z" fill="black"/>
</svg>
