<svg width="282" height="434" viewBox="0 0 282 434" fill="none" xmlns="http://www.w3.org/2000/svg">
<g clip-path="url(#clip0)" filter="url(#filter0_d)">
<path d="M249.075 413.007H32.9246C23.5758 413.007 16 405.441 16 396.104V28.9031C16 19.5662 23.5758 12 32.9246 12H249.075C258.424 12 266 19.5662 266 28.9031V396.104C266 405.441 258.424 413.007 249.075 413.007Z" fill="#5C5D60"/>
<path d="M250.199 27.792H32.3657V235.345H250.199V27.792Z" fill="#E2DFDA"/>
<path d="M250.199 235.346H32.3657V383.679H250.199V235.346Z" fill="#F1F2F2"/>
<path d="M32.3657 164.743L64.025 140.327C70.699 135.18 78.9519 132.505 87.378 132.757C95.804 133.008 103.882 136.171 110.237 141.707L114.863 145.737L134.909 163.186L154.585 148.177C161.322 143.028 169.644 140.386 178.119 140.705C186.594 141.025 194.692 144.285 201.022 149.926L250.199 194.738V235.346L32.3657 235.473V164.743Z" fill="#C9C7C4"/>
<path d="M204.855 176.638L202.349 175.868L203.843 162.736L206.349 163.523L204.855 176.638Z" fill="#3F4448"/>
<path d="M186.897 176.638L189.403 175.868L187.909 162.736L185.403 163.523L186.897 176.638Z" fill="#3F4448"/>
<path d="M223.199 131.481C223.199 144.934 210.959 167.745 195.892 167.745C180.826 167.745 168.586 144.918 168.586 131.481C168.586 118.045 180.826 107.145 195.892 107.145C210.959 107.145 223.199 118.045 223.199 131.481Z" fill="#E24D4B"/>
<path d="M217.368 131.481C217.368 144.934 207.73 167.745 195.892 167.745C184.054 167.745 174.401 144.918 174.401 131.481C174.401 118.045 184.038 107.145 195.908 107.145C207.779 107.145 217.368 118.045 217.368 131.481Z" fill="#F3F7F8"/>
<path d="M209.963 131.481C209.963 144.934 203.65 167.745 195.876 167.745C188.102 167.745 181.789 144.934 181.789 131.481C181.789 118.029 188.102 107.145 195.876 107.145C203.65 107.145 209.963 118.045 209.963 131.481Z" fill="#E24D4B"/>
<path d="M202.124 131.481C202.124 144.934 199.33 167.745 195.876 167.745C192.423 167.745 189.644 144.934 189.644 131.481C189.644 118.029 192.439 107.145 195.876 107.145C199.314 107.145 202.124 118.045 202.124 131.481Z" fill="#F3F7F8"/>
<path d="M204.132 188.759H187.62C186.955 188.759 186.318 188.495 185.848 188.025C185.378 187.555 185.114 186.918 185.114 186.254V173.315H206.638V186.254C206.638 186.918 206.374 187.555 205.904 188.025C205.434 188.495 204.797 188.759 204.132 188.759V188.759Z" fill="#FED93C"/>
<path d="M207.521 174.326C207.521 174.592 207.417 174.847 207.231 175.036C207.044 175.225 206.791 175.334 206.526 175.338H185.259C184.99 175.338 184.733 175.231 184.543 175.042C184.353 174.852 184.247 174.595 184.247 174.326C184.247 174.194 184.273 174.064 184.324 173.942C184.375 173.82 184.45 173.71 184.544 173.617C184.638 173.524 184.75 173.451 184.873 173.402C184.995 173.353 185.127 173.329 185.259 173.331H206.526C206.79 173.331 207.043 173.436 207.23 173.623C207.417 173.809 207.521 174.062 207.521 174.326V174.326Z" fill="#F3C533"/>
<path d="M164.088 207.379H53.8674C50.3279 207.379 47.4585 210.247 47.4585 213.784C47.4585 217.322 50.3279 220.189 53.8674 220.189H164.088C167.628 220.189 170.497 217.322 170.497 213.784C170.497 210.247 167.628 207.379 164.088 207.379Z" fill="white"/>
<path d="M92.0159 182.498H53.8674C50.3279 182.498 47.4585 185.366 47.4585 188.903C47.4585 192.441 50.3279 195.308 53.8674 195.308H92.0159C95.5555 195.308 98.4249 192.441 98.4249 188.903C98.4249 185.366 95.5555 182.498 92.0159 182.498Z" fill="white"/>
<rect x="32.3657" y="235.346" width="217.833" height="91.9326" fill="white"/>
<path d="M72.1947 289.881C83.5319 289.881 92.7226 280.703 92.7226 269.382C92.7226 258.06 83.5319 248.882 72.1947 248.882C60.8574 248.882 51.6667 258.06 51.6667 269.382C51.6667 280.703 60.8574 289.881 72.1947 289.881Z" fill="#3256A6"/>
<path d="M140.541 289.881C151.878 289.881 161.069 280.703 161.069 269.382C161.069 258.06 151.878 248.882 140.541 248.882C129.203 248.882 120.013 258.06 120.013 269.382C120.013 280.703 129.203 289.881 140.541 289.881Z" fill="#3256A6"/>
<path d="M208.871 289.881C220.208 289.881 229.398 280.703 229.398 269.382C229.398 258.06 220.208 248.882 208.871 248.882C197.533 248.882 188.343 258.06 188.343 269.382C188.343 280.703 197.533 289.881 208.871 289.881Z" fill="#3256A6"/>
<path d="M85.5106 301.391H58.8789C55.3394 301.391 52.47 304.258 52.47 307.796C52.47 311.333 55.3394 314.201 58.8789 314.201H85.5106C89.0501 314.201 91.9195 311.333 91.9195 307.796C91.9195 304.258 89.0501 301.391 85.5106 301.391Z" fill="#CFD1D2"/>
<path d="M85.5106 342.507H58.8789C55.3394 342.507 52.47 345.375 52.47 348.912C52.47 352.45 55.3394 355.317 58.8789 355.317H85.5106C89.0501 355.317 91.9195 352.45 91.9195 348.912C91.9195 345.375 89.0501 342.507 85.5106 342.507Z" fill="#3C3C3C"/>
<path d="M153.857 301.391H127.225C123.685 301.391 120.816 304.258 120.816 307.796C120.816 311.333 123.685 314.201 127.225 314.201H153.857C157.396 314.201 160.266 311.333 160.266 307.796C160.266 304.258 157.396 301.391 153.857 301.391Z" fill="#CFD1D2"/>
<path d="M222.187 301.391H195.555C192.015 301.391 189.146 304.258 189.146 307.796C189.146 311.333 192.015 314.201 195.555 314.201H222.187C225.726 314.201 228.596 311.333 228.596 307.796C228.596 304.258 225.726 301.391 222.187 301.391Z" fill="#CFD1D2"/>
<path d="M97.9989 53.8591V59.5925C97.9989 59.9453 97.8756 60.2442 97.6291 60.4892C97.3826 60.7244 97.0818 60.842 96.7268 60.842C96.3816 60.842 96.0809 60.7244 95.8245 60.4892C95.5779 60.2442 95.4547 59.9453 95.4547 59.5925V53.815V53.8003V53.7562C95.4547 53.1681 95.361 52.6193 95.1736 52.1097C94.9863 51.5903 94.72 51.1443 94.3748 50.7719C94.0396 50.3897 93.6303 50.0908 93.1471 49.8752C92.6738 49.6498 92.1412 49.5371 91.5496 49.5371C90.9776 49.5371 90.4451 49.6351 89.952 49.8311C89.4589 50.0271 89.025 50.3015 88.6503 50.6543C88.2854 51.0072 87.9896 51.4286 87.7628 51.9186C87.5458 52.3988 87.4275 52.9231 87.4078 53.4916V59.5778C87.4078 59.7542 87.3733 59.9208 87.3042 60.0776C87.2451 60.2246 87.1563 60.3569 87.038 60.4745C86.9196 60.5823 86.7816 60.6705 86.6238 60.7391C86.4759 60.8077 86.3132 60.842 86.1357 60.842C85.9582 60.842 85.7905 60.8077 85.6327 60.7391C85.475 60.6705 85.3369 60.5823 85.2186 60.4745C85.1101 60.3569 85.0213 60.2246 84.9523 60.0776C84.8833 59.9208 84.8488 59.7542 84.8488 59.5778V43.1863C84.8488 43.0098 84.8833 42.8432 84.9523 42.6864C85.0213 42.5296 85.115 42.3924 85.2333 42.2748C85.3517 42.1572 85.4848 42.0641 85.6327 41.9955C85.7905 41.9269 85.9582 41.8926 86.1357 41.8926C86.4907 41.8926 86.7914 42.02 87.038 42.2748C87.2845 42.5198 87.4078 42.8236 87.4078 43.1863V48.7579C87.9699 48.2189 88.601 47.7925 89.3012 47.4789C90.0013 47.1555 90.7508 46.9938 91.5496 46.9938C92.4864 46.9938 93.3492 47.1751 94.1382 47.5377C94.9271 47.8906 95.6075 48.3757 96.1795 48.9931C96.7514 49.6007 97.1952 50.3162 97.5108 51.1395C97.8362 51.9529 97.9989 52.8251 97.9989 53.7562V53.7709V53.815V53.8591Z" fill="#3D72B9"/>
<path d="M103.464 54.2852C103.464 54.8732 103.573 55.422 103.789 55.9317C104.016 56.4413 104.322 56.8872 104.707 57.2694C105.091 57.6418 105.54 57.9358 106.053 58.1515C106.565 58.3671 107.118 58.4749 107.709 58.4749C108.291 58.4749 108.834 58.3671 109.337 58.1515C109.849 57.9358 110.293 57.637 110.668 57.2547C111.052 56.8725 111.353 56.4266 111.57 55.917C111.797 55.3975 111.915 54.8438 111.925 54.2558V54.1969V54.1675V48.4489C111.925 48.2725 111.96 48.1059 112.029 47.9491C112.098 47.7922 112.191 47.6599 112.31 47.5521C112.428 47.4345 112.566 47.3414 112.724 47.2728C112.882 47.2042 113.049 47.1699 113.227 47.1699C113.592 47.1699 113.892 47.2973 114.129 47.5521C114.366 47.7971 114.484 48.0961 114.484 48.4489V54.1528V54.1969V54.2558C114.484 55.079 114.341 55.863 114.055 56.6079C113.779 57.3527 113.394 58.0192 112.901 58.6072C112.408 59.1953 111.822 59.6902 111.141 60.092C110.471 60.484 109.741 60.7535 108.952 60.9006V64.5317C108.952 64.7081 108.917 64.8747 108.848 65.0315C108.779 65.1883 108.686 65.3255 108.567 65.4431C108.459 65.5607 108.326 65.6538 108.168 65.7224C108.02 65.791 107.857 65.8254 107.68 65.8254C107.315 65.8254 107.009 65.6979 106.763 65.4431C106.516 65.1981 106.393 64.8943 106.393 64.5317V60.8859C105.604 60.7388 104.874 60.4644 104.204 60.0626C103.543 59.6608 102.966 59.1658 102.473 58.5778C101.98 57.9898 101.595 57.3282 101.319 56.5932C101.043 55.8581 100.905 55.079 100.905 54.2558V48.4489C100.905 48.0961 101.028 47.7971 101.275 47.5521C101.521 47.2973 101.822 47.1699 102.177 47.1699C102.355 47.1699 102.517 47.2042 102.665 47.2728C102.823 47.3414 102.961 47.4345 103.079 47.5521C103.198 47.6599 103.291 47.7922 103.361 47.9491C103.43 48.1059 103.464 48.2725 103.464 48.4489V54.2852Z" fill="#3D72B9"/>
<path d="M117.269 54.0064C117.269 53.0362 117.452 52.1248 117.817 51.2721C118.191 50.4194 118.699 49.6795 119.34 49.0523C119.981 48.4152 120.731 47.9154 121.589 47.5528C122.447 47.1803 123.359 46.9941 124.325 46.9941C125.301 46.9941 126.214 47.1803 127.062 47.5528C127.92 47.9154 128.664 48.4152 129.295 49.0523C129.936 49.6795 130.439 50.4194 130.804 51.2721C131.179 52.1248 131.366 53.0362 131.366 54.0064C131.366 54.9767 131.179 55.8882 130.804 56.7408C130.439 57.5836 129.936 58.3236 129.295 58.9607C128.664 59.5977 127.92 60.1024 127.062 60.4749C126.214 60.8375 125.301 61.0188 124.325 61.0188C123.457 61.0188 122.644 60.8767 121.884 60.5925C121.125 60.2984 120.435 59.8966 119.814 59.387V64.5029C119.814 64.8753 119.7 65.1889 119.473 65.4438C119.246 65.6985 118.946 65.826 118.571 65.826C118.393 65.826 118.226 65.7917 118.068 65.7231C117.91 65.6544 117.772 65.5614 117.654 65.4438C117.536 65.3261 117.442 65.184 117.373 65.0174C117.304 64.8606 117.269 64.6891 117.269 64.5029V54.0064ZM119.814 54.0064C119.814 54.6141 119.932 55.1923 120.169 55.7412C120.405 56.2802 120.726 56.7555 121.13 57.1672C121.534 57.5689 122.013 57.8924 122.565 58.1374C123.117 58.3726 123.704 58.4902 124.325 58.4902C124.956 58.4902 125.543 58.3726 126.085 58.1374C126.628 57.8924 127.101 57.5689 127.505 57.1672C127.91 56.7555 128.225 56.2802 128.452 55.7412C128.689 55.1923 128.807 54.6141 128.807 54.0064C128.807 53.389 128.689 52.8108 128.452 52.2718C128.225 51.7229 127.91 51.2476 127.505 50.8458C127.101 50.4439 126.628 50.1254 126.085 49.8902C125.543 49.655 124.956 49.5374 124.325 49.5374C123.704 49.5374 123.117 49.655 122.565 49.8902C122.022 50.1254 121.544 50.4439 121.13 50.8458C120.726 51.2476 120.405 51.7229 120.169 52.2718C119.932 52.8108 119.814 53.389 119.814 54.0064Z" fill="#3D72B9"/>
<path d="M135.682 55.1531C135.78 55.6431 135.958 56.094 136.214 56.5056C136.48 56.9074 136.796 57.2554 137.161 57.5494C137.536 57.8434 137.955 58.0737 138.418 58.2403C138.892 58.4069 139.389 58.4902 139.912 58.4902C140.533 58.4902 141.105 58.3873 141.628 58.1815C142.161 57.9757 142.599 57.6817 142.945 57.2995C143.181 57.1328 143.403 57.0348 143.61 57.0054C143.827 56.9662 144.034 56.9809 144.231 57.0495C144.359 57.0985 144.473 57.172 144.572 57.2701C144.67 57.3583 144.759 57.4612 144.838 57.5788C144.996 57.8238 145.065 58.1031 145.045 58.4167C145.035 58.7303 144.877 59.0146 144.572 59.2694C144.335 59.5046 144.064 59.73 143.758 59.9456C143.453 60.1612 143.107 60.3474 142.723 60.5043C142.338 60.661 141.914 60.7836 141.451 60.8718C140.987 60.9698 140.474 61.0188 139.912 61.0188C138.936 61.0188 138.019 60.8375 137.161 60.4749C136.303 60.1024 135.554 59.6026 134.912 58.9754C134.271 58.3383 133.764 57.5935 133.389 56.7408C133.024 55.8882 132.842 54.9767 132.842 54.0064C132.842 53.0362 133.024 52.1247 133.389 51.2721C133.764 50.4194 134.271 49.6795 134.912 49.0523C135.554 48.4152 136.303 47.9154 137.161 47.5528C138.019 47.1803 138.936 46.9941 139.912 46.9941C140.879 46.9941 141.786 47.1754 142.634 47.5381C143.492 47.9007 144.241 48.3956 144.882 49.0229C145.523 49.6501 146.031 50.39 146.406 51.2427C146.79 52.0855 146.988 52.9872 146.998 53.9477C146.998 54.3005 146.879 54.5896 146.643 54.815C146.416 55.0404 146.115 55.1531 145.74 55.1531H135.682ZM144.365 53.0362C144.276 52.5168 144.098 52.0463 143.832 51.6249C143.576 51.1937 143.25 50.8262 142.856 50.5224C142.471 50.2087 142.033 49.9686 141.539 49.802C141.046 49.6256 140.519 49.5374 139.957 49.5374C139.394 49.5374 138.867 49.6256 138.374 49.802C137.891 49.9784 137.457 50.2234 137.072 50.5371C136.687 50.8409 136.367 51.2084 136.111 51.6396C135.864 52.061 135.696 52.5265 135.608 53.0362H144.365Z" fill="#3D72B9"/>
<path d="M156.432 49.7132H156.417C155.766 49.7132 155.15 49.8406 154.568 50.0954C153.986 50.3404 153.478 50.6785 153.044 51.1098C152.61 51.541 152.265 52.0506 152.009 52.6387C151.752 53.2169 151.624 53.8392 151.624 54.5057V59.5775C151.624 59.9401 151.506 60.2439 151.269 60.4889C151.033 60.7241 150.742 60.8417 150.397 60.8417C150.032 60.8417 149.721 60.7241 149.465 60.4889C149.208 60.2439 149.08 59.9401 149.08 59.5775V54.5057C149.08 53.4962 149.272 52.5504 149.657 51.6684C150.042 50.7765 150.564 49.9974 151.225 49.331C151.896 48.6645 152.675 48.1402 153.562 47.758C154.459 47.3659 155.411 47.1699 156.417 47.1699H156.432H156.491C156.915 47.1699 157.24 47.2924 157.467 47.5374C157.704 47.7727 157.822 48.0715 157.822 48.4342C157.822 48.7968 157.694 49.1006 157.438 49.3457C157.181 49.5907 156.866 49.7132 156.491 49.7132H156.432Z" fill="#3D72B9"/>
<path d="M158.41 54.0064C158.41 53.0362 158.592 52.1247 158.957 51.2721C159.332 50.4194 159.84 49.6795 160.481 49.0523C161.122 48.4152 161.872 47.9154 162.729 47.5528C163.587 47.1803 164.499 46.9941 165.466 46.9941C166.432 46.9941 167.339 47.1754 168.187 47.5381C169.035 47.9007 169.775 48.3956 170.407 49.0229C171.047 49.6501 171.555 50.3851 171.93 51.228C172.305 52.0708 172.497 52.9725 172.507 53.933V54.0064V59.534C172.507 59.8966 172.378 60.2053 172.122 60.4602C171.876 60.7149 171.565 60.8424 171.19 60.8424C170.825 60.8424 170.525 60.7149 170.288 60.4602C170.061 60.2053 169.947 59.8966 169.947 59.534L169.933 59.2253C169.322 59.7643 168.636 60.2004 167.877 60.5337C167.127 60.8571 166.323 61.0188 165.466 61.0188C164.499 61.0188 163.587 60.8375 162.729 60.4749C161.872 60.1024 161.122 59.5977 160.481 58.9607C159.84 58.3236 159.332 57.5836 158.957 56.7408C158.592 55.8882 158.41 54.9767 158.41 54.0064ZM160.954 54.0064C160.954 54.6141 161.072 55.1923 161.309 55.7412C161.546 56.2802 161.866 56.7555 162.27 57.1672C162.675 57.5689 163.153 57.8924 163.705 58.1374C164.258 58.3726 164.844 58.4902 165.466 58.4902C166.097 58.4902 166.684 58.3726 167.226 58.1374C167.768 57.8924 168.242 57.5689 168.646 57.1672C169.05 56.7555 169.366 56.2802 169.593 55.7412C169.83 55.1923 169.947 54.6141 169.947 54.0064C169.947 53.389 169.83 52.8108 169.593 52.2718C169.366 51.7229 169.05 51.2476 168.646 50.8458C168.242 50.4439 167.768 50.1254 167.226 49.8902C166.684 49.655 166.097 49.5374 165.466 49.5374C164.844 49.5374 164.258 49.655 163.705 49.8902C163.163 50.1254 162.685 50.4439 162.27 50.8458C161.866 51.2476 161.546 51.7229 161.309 52.2718C161.072 52.8108 160.954 53.389 160.954 54.0064Z" fill="#71C172"/>
<path d="M175.708 44.0247C175.708 43.613 175.846 43.27 176.122 42.9956C176.408 42.7212 176.753 42.584 177.158 42.584C177.572 42.584 177.917 42.7212 178.193 42.9956C178.479 43.27 178.622 43.613 178.622 44.0247C178.622 44.2207 178.583 44.4069 178.504 44.5833C178.435 44.7499 178.331 44.9018 178.193 45.039C178.065 45.1664 177.912 45.2693 177.735 45.3478C177.557 45.4262 177.365 45.4654 177.158 45.4654C176.96 45.4654 176.773 45.4262 176.596 45.3478C176.418 45.2693 176.26 45.1664 176.122 45.039C175.994 44.9018 175.891 44.7499 175.812 44.5833C175.743 44.4069 175.708 44.2207 175.708 44.0247ZM178.445 59.5782C178.445 59.7546 178.41 59.9212 178.341 60.0781C178.282 60.2251 178.193 60.3574 178.075 60.475C177.956 60.5828 177.818 60.671 177.661 60.7396C177.513 60.8082 177.35 60.8425 177.172 60.8425C176.995 60.8425 176.827 60.8082 176.67 60.7396C176.522 60.671 176.388 60.5828 176.27 60.475C176.152 60.3574 176.058 60.2251 175.989 60.0781C175.92 59.9212 175.886 59.7546 175.886 59.5782V48.4497C175.886 48.0968 176.014 47.7979 176.27 47.5529C176.527 47.2981 176.832 47.1707 177.187 47.1707C177.552 47.1707 177.853 47.2981 178.09 47.5529C178.326 47.7979 178.445 48.0968 178.445 48.4497V59.5782Z" fill="#71C172"/>
<path d="M189.078 49.7132H189.063C188.413 49.7132 187.796 49.8406 187.214 50.0954C186.632 50.3404 186.125 50.6785 185.691 51.1098C185.257 51.541 184.912 52.0506 184.655 52.6387C184.399 53.2169 184.271 53.8392 184.271 54.5057V59.5775C184.271 59.9401 184.152 60.2439 183.916 60.4889C183.679 60.7241 183.388 60.8417 183.043 60.8417C182.678 60.8417 182.368 60.7241 182.111 60.4889C181.855 60.2439 181.727 59.9401 181.727 59.5775V54.5057C181.727 53.4962 181.919 52.5504 182.303 51.6684C182.688 50.7765 183.211 49.9974 183.871 49.331C184.542 48.6645 185.321 48.1402 186.209 47.758C187.106 47.3659 188.058 47.1699 189.063 47.1699H189.078H189.137C189.561 47.1699 189.887 47.2924 190.114 47.5374C190.35 47.7727 190.469 48.0715 190.469 48.4342C190.469 48.7968 190.341 49.1006 190.084 49.3457C189.828 49.5907 189.512 49.7132 189.137 49.7132H189.078Z" fill="#71C172"/>
<path d="M193.376 43.8075C193.376 42.8957 194.064 42.2119 194.982 42.2119C195.899 42.2119 196.587 42.8957 196.587 43.8075C196.587 44.7192 195.899 45.403 194.982 45.403C194.064 45.403 193.376 44.7192 193.376 43.8075ZM196.22 43.8075C196.22 43.0325 195.715 42.531 194.982 42.531C194.248 42.531 193.743 43.0325 193.743 43.8075C193.743 44.5824 194.248 45.0839 194.982 45.0839C195.761 45.0839 196.22 44.5824 196.22 43.8075ZM194.339 42.9869H195.027C195.44 42.9869 195.624 43.1237 195.624 43.4883C195.624 43.7619 195.532 43.8986 195.303 43.9442L195.715 44.5824H195.303L194.936 43.9898H194.66V44.5824H194.293V42.9869H194.339ZM195.027 43.7163C195.257 43.7163 195.303 43.6707 195.303 43.4883C195.303 43.306 195.211 43.2604 195.027 43.2604H194.706V43.7163H195.027Z" fill="#898989"/>
</g>
<defs>
<filter id="filter0_d" x="0" y="0" width="282" height="433.007" filterUnits="userSpaceOnUse" color-interpolation-filters="sRGB">
<feFlood flood-opacity="0" result="BackgroundImageFix"/>
<feColorMatrix in="SourceAlpha" type="matrix" values="0 0 0 0 0 0 0 0 0 0 0 0 0 0 0 0 0 0 127 0"/>
<feOffset dy="4"/>
<feGaussianBlur stdDeviation="8"/>
<feColorMatrix type="matrix" values="0 0 0 0 0 0 0 0 0 0 0 0 0 0 0 0 0 0 0.25 0"/>
<feBlend mode="normal" in2="BackgroundImageFix" result="effect1_dropShadow"/>
<feBlend mode="normal" in="SourceGraphic" in2="effect1_dropShadow" result="shape"/>
</filter>
<clipPath id="clip0">
<rect width="250" height="401.007" fill="white" transform="translate(16 12)"/>
</clipPath>
</defs>
</svg>
