<svg width="16" height="16" viewBox="0 0 16 16" fill="none" xmlns="http://www.w3.org/2000/svg">
<g clip-path="url(#clip0)">
<path d="M15.6702 0.32777C15.4772 0.13577 15.0902 -0.0112305 14.6152 -0.0112305C14.0232 -0.0112305 13.2972 0.21677 12.6482 0.866769L9.35221 4.17077C7.49421 4.05377 2.73721 3.73777 2.61921 3.73377C2.59821 3.73277 2.57221 3.73177 2.54321 3.73177C2.38221 3.73177 2.10521 3.76277 1.79021 4.02377C1.41921 4.33177 0.646215 5.05977 0.646215 5.05977C0.460215 5.24677 0.366215 5.47877 0.388215 5.69677C0.402215 5.82877 0.473215 6.06877 0.796215 6.19477C0.992215 6.27277 4.11321 7.44177 5.55521 7.97377L3.58621 10.0078C3.50021 10.0108 3.39121 10.0118 3.27021 10.0118C2.67021 10.0118 1.73921 9.99177 1.36621 9.99177C1.31721 9.99177 1.27721 9.99177 1.24921 9.99277C1.13521 9.99677 0.901215 9.93977 0.281215 10.4598L0.237215 10.5008C0.0512146 10.6878 0.00821463 10.8728 0.00421463 10.9958C0.00021463 11.1218 0.0332146 11.3048 0.216215 11.4508C0.325215 11.5398 1.73221 12.4418 2.88521 13.1398C3.16121 13.5908 4.43421 15.6178 4.50121 15.7278C4.59821 15.8918 4.75621 15.9858 4.94621 15.9918C4.95121 15.9918 4.95621 15.9918 4.96221 15.9918C5.14621 15.9918 5.33621 15.8998 5.52121 15.7198C6.04521 15.1058 5.97321 14.8518 5.97621 14.7438C5.98421 14.4088 5.97021 12.9878 5.98221 12.4248L8.02722 10.4548C8.54922 11.8928 9.69221 14.9878 9.76821 15.1848C9.89521 15.5078 10.1352 15.5798 10.2662 15.5918C10.2872 15.5948 10.3112 15.5958 10.3322 15.5958C10.5292 15.5958 10.7342 15.5028 10.9022 15.3338C10.9022 15.3338 11.6252 14.5638 11.9332 14.1888C12.2422 13.8148 12.2282 13.4948 12.2222 13.3438C12.2202 13.2398 11.9312 8.49977 11.8242 6.64877L15.1212 3.34477C16.2912 2.17477 16.1042 0.76277 15.6702 0.32777ZM14.4122 2.63577L11.1152 5.93977L10.7972 6.25777L10.8222 6.70777C10.8772 7.64777 10.9782 9.33377 11.0662 10.7788C11.1442 12.0648 11.2162 13.2798 11.2222 13.3828C11.2242 13.4538 11.2262 13.4708 11.1592 13.5508C11.0112 13.7308 10.7352 14.0348 10.5032 14.2878C10.1422 13.3148 9.38621 11.2598 8.96621 10.1088L8.43021 8.63077L7.31821 9.74477L5.27421 11.7148L4.98921 11.9998L4.98021 12.4028C4.97321 12.7238 4.97521 13.3008 4.97621 13.8098C4.97721 14.1308 4.97721 14.4118 4.97621 14.5948C4.99621 14.6278 5.01821 14.6628 5.03721 14.6938C5.04421 14.6818 4.97121 14.6728 4.97521 14.6638C4.97521 14.6468 4.97521 14.6148 4.97521 14.5958C4.94921 14.5548 4.92421 14.5148 4.89621 14.4698C4.48421 13.8118 3.91421 12.8998 3.74021 12.6158L3.61321 12.4068L3.40521 12.2808C2.67021 11.8358 1.86521 11.3288 1.34821 10.9958H1.33321C1.32121 11.0018 1.30721 10.9478 1.28921 10.9588C1.30621 10.9698 1.33021 10.9838 1.34721 10.9958H1.36621C1.52821 10.9958 1.79521 10.9988 2.09421 11.0038C2.48621 11.0098 2.93021 11.0158 3.27021 11.0158C3.40021 11.0158 3.51621 11.0148 3.60921 11.0128L4.01121 11.0038L4.29521 10.7188L6.26421 8.68377L7.37221 7.57477L5.90121 7.03177C4.79621 6.62377 2.67921 5.83277 1.68921 5.45977C1.94321 5.22577 2.24921 4.94677 2.42821 4.79877C2.47821 4.75777 2.51621 4.73577 2.54321 4.73577L2.57821 4.73677C2.68921 4.74277 4.06021 4.83277 5.38721 4.91877C6.79521 5.01177 8.38521 5.11477 9.28721 5.17277L9.73821 5.20077L10.0582 4.88077L13.3552 1.57677C13.8632 1.06877 14.3632 0.992769 14.6152 0.992769C14.7792 0.992769 14.8942 1.02277 14.9532 1.04577C15.0252 1.23777 15.1212 1.92577 14.4122 2.63577Z" fill="black"/>
</g>
<defs>
<clipPath id="clip0">
<rect width="16" height="16" fill="white"/>
</clipPath>
</defs>
</svg>
