<svg width="16" height="16" viewBox="0 0 16 16" fill="none" xmlns="http://www.w3.org/2000/svg">
<g clip-path="url(#clip0)">
<path fill-rule="evenodd" clip-rule="evenodd" d="M1.59831 10.2424C1.39 10.6132 1.42584 10.7768 1.44949 10.8237C1.47315 10.8706 1.58346 10.9966 2.00548 11.0493C2.406 11.0994 2.96835 11.0647 3.66721 10.93C5.05794 10.6619 6.87498 10.0207 8.77786 9.06052C10.6807 8.10034 12.276 7.01971 13.3179 6.0603C13.8415 5.57818 14.2035 5.14647 14.4012 4.79456C14.6095 4.42377 14.5737 4.26016 14.55 4.21328C14.5264 4.1664 14.4161 4.04037 13.994 3.98763C13.5935 3.93758 13.0312 3.97231 12.3323 4.10701C10.9416 4.37508 9.12454 5.01627 7.22167 5.97645C5.31879 6.93662 3.72349 8.01726 2.6816 8.97667C2.15804 9.45878 1.79601 9.89049 1.59831 10.2424ZM2.00421 8.24104C3.13148 7.20301 4.80991 6.0733 6.77118 5.08366C8.73245 4.09403 10.6383 3.41512 12.143 3.12509C12.8919 2.98074 13.5704 2.92691 14.118 2.99535C14.6442 3.0611 15.1894 3.26058 15.4428 3.76279C15.6962 4.265 15.5328 4.82207 15.2731 5.28436C15.0027 5.76554 14.5563 6.27932 13.9953 6.79592C12.868 7.83395 11.1896 8.96366 9.22835 9.9533C7.26708 10.9429 5.36118 11.6218 3.85648 11.9119C3.10762 12.0562 2.42914 12.11 1.88148 12.0416C1.35532 11.9759 0.810119 11.7764 0.55671 11.2742C0.303302 10.772 0.466755 10.2149 0.726469 9.75261C0.996794 9.27143 1.4432 8.75765 2.00421 8.24104Z" fill="black"/>
<path fill-rule="evenodd" clip-rule="evenodd" d="M8 12C10.4853 12 12.5 9.98528 12.5 7.5C12.5 5.01472 10.4853 3 8 3C5.51472 3 3.5 5.01472 3.5 7.5C3.5 9.98528 5.51472 12 8 12ZM8 13C11.0376 13 13.5 10.5376 13.5 7.5C13.5 4.46243 11.0376 2 8 2C4.96243 2 2.5 4.46243 2.5 7.5C2.5 10.5376 4.96243 13 8 13Z" fill="black"/>
</g>
<defs>
<clipPath id="clip0">
<rect width="16" height="16" fill="white"/>
</clipPath>
</defs>
</svg>
