<?xml version="1.0" encoding="utf-8"?>
<!-- Generator: Adobe Illustrator 23.0.2, SVG Export Plug-In . SVG Version: 6.00 Build 0)  -->
<svg version="1.1" id="Layer_1" xmlns="http://www.w3.org/2000/svg" xmlns:xlink="http://www.w3.org/1999/xlink" x="0px" y="0px"
	 viewBox="0 0 606.8 502.8" style="enable-background:new 0 0 606.8 502.8;" xml:space="preserve">
<style type="text/css">
	.st0{opacity:0.24;fill:#1A4669;enable-background:new    ;}
	.st1{fill:#1A4669;}
	.st2{fill:url(#SVGID_1_);}
	.st3{fill:url(#SVGID_2_);}
	.st4{fill:url(#SVGID_3_);}
	.st5{opacity:0.51;fill:#1A4669;enable-background:new    ;}
	.st6{fill:url(#SVGID_4_);}
	.st7{fill:#FFFFFF;}
</style>
<title>Social Media 3</title>
<path class="st0" d="M144.8,489.9c8.8,0.5,16.9,5.4,26.1,6.6c62.3,8.4,125.5,8.4,187.9,0c29.3-4,57.8-11.5,87.3-13.2
	c30.3-1.8,61.6,1.3,90.8-8.8c34.8-12.1,60.1-43.7,61.5-77.1c1.3-31.8-16.8-61.4-26.5-92c-11.5-36.3-11.2-75.4,0.9-111.5
	c12.2-36.3,36.1-70.9,33.9-108.7c-3.2-52.9-67.6-95.6-125.1-82.9c-30.1,6.7-55.4,25.4-85.2,33.1c-48.4,12.7-100.3-5-150.4,0
	c-42.5,4.3-81.7,25.3-110.2,53.9S89,153.7,77.9,190.6c-9.8,32.6-14.5,67.1-32.9,96.6c-13.5,21.6-34.2,40.3-40.2,64.5
	C-2.3,380-23.3,480.2,144.8,489.9z"/>
<path class="st1" d="M78,237.2v51.2c0,11.8,9.6,21.4,21.4,21.4c0,0,0,0,0,0h3.9v22.5l11.7-22.5h88.9c11.8,0,21.4-9.6,21.4-21.4l0,0
	v-51.2c0-11.8-9.6-21.4-21.4-21.4c0,0,0,0,0,0H99.5C87.6,215.8,78.1,225.3,78,237.2C78,237.2,78,237.2,78,237.2z"/>
<linearGradient id="SVGID_1_" gradientUnits="userSpaceOnUse" x1="-781.1431" y1="130.3301" x2="-767.5131" y2="457.4702" gradientTransform="matrix(-1 0 0 -1 -624.98 500.6)">
	<stop  offset="0" style="stop-color:#FFFFFF;stop-opacity:0"/>
	<stop  offset="0.95" style="stop-color:#FFFFFF"/>
</linearGradient>
<path class="st2" d="M78,237.2v51.2c0,11.8,9.6,21.4,21.4,21.4c0,0,0,0,0,0h3.9v22.5l11.7-22.5h88.9c11.8,0,21.4-9.6,21.4-21.4l0,0
	v-51.2c0-11.8-9.6-21.4-21.4-21.4c0,0,0,0,0,0H99.5C87.6,215.8,78.1,225.3,78,237.2C78,237.2,78,237.2,78,237.2z"/>
<rect x="97" y="234.4" class="st1" width="109.7" height="6.1"/>
<rect x="97" y="250.6" class="st1" width="109.7" height="6.1"/>
<rect x="97" y="266.7" class="st1" width="109.7" height="6.1"/>
<linearGradient id="SVGID_2_" gradientUnits="userSpaceOnUse" x1="293.0266" y1="132.2402" x2="225.4666" y2="-1324.0598" gradientTransform="matrix(1 0 0 -1 0 503.89)">
	<stop  offset="0" style="stop-color:#010101;stop-opacity:0"/>
	<stop  offset="0.95" style="stop-color:#010101"/>
</linearGradient>
<ellipse class="st3" cx="288.9" cy="460.2" rx="166.4" ry="27.5"/>
<path class="st1" d="M218.8,60.1h150c17.2,0,31.1,13.9,31.1,31.1v347.7c0,17.2-13.9,31.1-31.1,31.1h-150
	c-17.2,0-31.1-13.9-31.1-31.1V91.2C187.7,74,201.6,60.1,218.8,60.1z"/>
<linearGradient id="SVGID_3_" gradientUnits="userSpaceOnUse" x1="242.9765" y1="-236.021" x2="369.9664" y2="531.4289" gradientTransform="matrix(1 0 0 -1 -27.83 500.6)">
	<stop  offset="0" style="stop-color:#FFFFFF;stop-opacity:0"/>
	<stop  offset="0.95" style="stop-color:#FFFFFF"/>
</linearGradient>
<path class="st4" d="M385,94.7v340.2H201.6V94.7c0-7.1,5.8-12.8,12.9-12.9h47.3c0,6,4.9,10.9,10.9,10.9h42.6c6,0,10.9-4.8,10.9-10.9
	c0,0,0,0,0,0h46C379.3,81.8,385,87.6,385,94.7z"/>
<rect x="209.9" y="343" class="st0" width="164.8" height="83.7"/>
<rect x="209.5" y="159" class="st5" width="166.4" height="160.1"/>
<circle class="st0" cx="228.8" cy="138.1" r="14.7"/>
<rect x="250.4" y="130.2" class="st5" width="60.9" height="7.1"/>
<rect x="250.4" y="143.7" class="st0" width="82.9" height="3.5"/>
<path class="st1" d="M394.2,269.7c0,24.3,25.2,43.9,56.4,43.9c5.2,0,10.4-0.6,15.5-1.7l24.6,12.6l-9.9-17.8
	c15.7-7.7,26.1-21.4,26.1-37c0-24.3-25.2-43.9-56.4-43.9S394.2,245.5,394.2,269.7z"/>
<linearGradient id="SVGID_4_" gradientUnits="userSpaceOnUse" x1="-828.1902" y1="226.9422" x2="-1038.3801" y2="225.2722" gradientTransform="matrix(-1 0 0 -1 -464.73 500.6)">
	<stop  offset="0" style="stop-color:#FFFFFF;stop-opacity:0"/>
	<stop  offset="0.95" style="stop-color:#FFFFFF"/>
</linearGradient>
<path class="st6" d="M392.9,269.1c0,24.3,25.2,43.9,56.4,43.9c5.2,0,10.4-0.6,15.5-1.7l24.6,12.6l-9.9-17.8
	c15.7-7.7,26.1-21.4,26.1-37c0-24.3-25.2-43.9-56.4-43.9S392.9,244.8,392.9,269.1z"/>
<path class="st7" d="M429.7,147.2c0,0-7.6-9.9-14.7-0.5s16.1,20.8,16.1,20.8s16.6-11.8,14.7-18.9S433.5,139.6,429.7,147.2z"/>
<path class="st7" d="M145.5,172.2c0,0-6.3-8.3-12.3-0.4s13.4,17.4,13.4,17.4s13.8-9.9,12.3-15.8c-1.1-3.8-5.1-6.1-8.9-4.9
	C148.1,169,146.4,170.4,145.5,172.2z"/>
<path class="st7" d="M474.2,175.7c0,0-10.2-13.4-19.8-0.6s21.7,28.1,21.7,28.1s22.3-15.9,19.8-25.5S479.2,165.5,474.2,175.7z"/>
<path class="st7" d="M165.2,140.3c0,0-4.6-6-8.8-0.3s9.7,12.5,9.7,12.5s9.9-7.1,8.8-11.4c-0.8-2.8-3.7-4.4-6.4-3.6
	C167,138,165.8,139,165.2,140.3z"/>
</svg>
