<svg width="16" height="17" viewBox="0 0 16 17" fill="none" xmlns="http://www.w3.org/2000/svg">
<path fill-rule="evenodd" clip-rule="evenodd" d="M8.42098 1.76008L7.98225 1.99633L7.54351 1.76008L7.98225 0.945312L8.42098 1.76008ZM7.98225 3.05409C7.94413 3.12582 7.90396 3.2015 7.8619 3.28083C7.5199 3.92596 7.05362 4.81187 6.55637 5.77526C5.55728 7.71095 4.44788 9.93136 3.96011 11.1508C3.54687 12.1839 3.83991 13.365 4.62963 14.3239C5.41789 15.281 6.65258 15.9487 7.98226 15.9487C9.31194 15.9487 10.5465 15.281 11.3347 14.3239C12.1243 13.365 12.4173 12.1839 12.0042 11.1508C11.5165 9.93135 10.4072 7.71095 9.40809 5.77526C8.91086 4.81187 8.44459 3.92596 8.10258 3.28083C8.06053 3.2015 8.02036 3.12582 7.98225 3.05409ZM7.98225 1.99633L7.54351 1.76008L7.50377 1.83404L7.391 2.04456C7.29343 2.22702 7.15299 2.49033 6.98138 2.81404C6.63821 3.46137 6.17015 4.35065 5.67078 5.31817C4.67662 7.2443 3.54362 9.50858 3.03479 10.7807C2.45143 12.2391 2.90593 13.7986 3.86033 14.9575C4.81619 16.1181 6.32221 16.9453 7.98226 16.9453C9.64232 16.9453 11.1482 16.1181 12.104 14.9574C13.0583 13.7986 13.5127 12.2391 12.9295 10.7807C12.4208 9.50859 11.2878 7.2443 10.2937 5.31817C9.79432 4.35065 9.32628 3.46137 8.9831 2.81404C8.8115 2.49033 8.67106 2.22702 8.57349 2.04456L8.46072 1.83404L8.42098 1.76008L7.98225 1.99633Z" fill="black"/>
</svg>
