<svg width="64" height="64" viewBox="0 0 64 64" fill="none" xmlns="http://www.w3.org/2000/svg">
<path d="M0 15.1855C0 6.79876 6.87691 0 15.36 0H48.64C57.1231 0 64 6.79876 64 15.1855V48.0873C64 56.474 57.1231 63.2727 48.64 63.2727H15.36C6.87691 63.2727 0 56.474 0 48.0873V15.1855Z" fill="#B3F3BD"/>
<path fill-rule="evenodd" clip-rule="evenodd" d="M20.6655 12.6545H46.2655V50.6182H20.6655V47.6385L23.3449 46.1016C24.384 45.5056 24.7412 44.1876 24.1427 43.1578C23.5443 42.128 22.2168 41.7763 21.1777 42.3723L20.6655 42.6661V40.8294L23.3449 39.2925C24.384 38.6965 24.7412 37.3785 24.1427 36.3487C23.5443 35.3189 22.2168 34.9673 21.1777 35.5633L20.6655 35.8571V34.2491L23.3449 32.7122C24.384 32.1162 24.7412 30.7982 24.1427 29.7684C23.5443 28.7386 22.2168 28.3869 21.1777 28.9829L20.6655 29.2767V27.4156L23.3449 25.8787C24.384 25.2827 24.7412 23.9647 24.1427 22.9349C23.5443 21.9051 22.2168 21.5535 21.1777 22.1495L20.6655 22.4433V20.5577L23.3449 19.0208C24.384 18.4248 24.7412 17.1068 24.1427 16.077C23.5443 15.0472 22.2168 14.6956 21.1777 15.2916L20.6655 15.5854V12.6545Z" fill="#49CB74"/>
<path d="M18.1118 18.5132C17.6842 18.7585 17.5372 19.3009 17.7834 19.7247C18.0297 20.1485 18.576 20.2933 19.0037 20.048L22.7072 17.9236C23.1349 17.6783 23.2819 17.1359 23.0356 16.7121C22.7893 16.2883 22.243 16.1436 21.8154 16.3889L18.1118 18.5132Z" fill="#49CB74"/>
<path d="M18.1118 25.3711C17.6842 25.6164 17.5372 26.1588 17.7834 26.5826C18.0297 27.0064 18.576 27.1511 19.0037 26.9059L22.7072 24.7815C23.1349 24.5362 23.2819 23.9938 23.0356 23.57C22.7893 23.1462 22.243 23.0015 21.8154 23.2467L18.1118 25.3711Z" fill="#49CB74"/>
<path d="M17.7834 33.4161C17.5372 32.9923 17.6842 32.4499 18.1118 32.2046L21.8154 30.0802C22.243 29.8349 22.7893 29.9796 23.0356 30.4034C23.2819 30.8272 23.1349 31.3696 22.7072 31.6149L19.0037 33.7393C18.576 33.9846 18.0297 33.8399 17.7834 33.4161Z" fill="#49CB74"/>
<path d="M18.1118 38.785C17.6842 39.0302 17.5372 39.5727 17.7834 39.9965C18.0297 40.4203 18.576 40.565 19.0037 40.3197L22.7072 38.1953C23.1349 37.95 23.2819 37.4076 23.0356 36.9838C22.7893 36.56 22.243 36.4153 21.8154 36.6606L18.1118 38.785Z" fill="#49CB74"/>
<path d="M17.7834 46.8055C17.5372 46.3817 17.6842 45.8393 18.1118 45.594L21.8154 43.4696C22.243 43.2243 22.7893 43.369 23.0356 43.7928C23.2819 44.2166 23.1349 44.759 22.7072 45.0043L19.0037 47.1287C18.576 47.374 18.0297 47.2293 17.7834 46.8055Z" fill="#49CB74"/>
<path fill-rule="evenodd" clip-rule="evenodd" d="M37.1203 15.6917C37.8273 15.6917 38.4003 16.2582 38.4003 16.9571L38.4003 23.2844C38.4003 23.9833 37.8273 24.5498 37.1203 24.5498C36.4134 24.5498 35.8403 23.9833 35.8403 23.2844L35.8403 16.9571C35.8403 16.2582 36.4134 15.6917 37.1203 15.6917ZM42.2403 15.6917C42.9473 15.6917 43.5203 16.2582 43.5203 16.9571L43.5203 28.3462C43.5203 29.0451 42.9473 29.6116 42.2403 29.6116C41.5334 29.6116 40.9603 29.0451 40.9603 28.3462L40.9603 16.9571C40.9603 16.2582 41.5334 15.6917 42.2403 15.6917Z" fill="#9AF8B9"/>
</svg>
