<svg width="699" height="215" viewBox="0 0 699 215" fill="none" xmlns="http://www.w3.org/2000/svg">
<g clip-path="url(#clip0_1101_5385)">
<path d="M334.701 43.396C334.132 44.2827 333.689 45.2347 333.371 46.252C333.054 47.2693 332.895 48.282 332.895 49.29C332.895 50.298 333.054 51.306 333.371 52.314C333.689 53.3127 334.132 54.274 334.701 55.198H333.973C333.255 54.3767 332.704 53.462 332.321 52.454C331.939 51.446 331.747 50.396 331.747 49.304C331.747 48.212 331.939 47.162 332.321 46.154C332.704 45.1367 333.255 44.2173 333.973 43.396H334.701ZM348.072 43.396V53H346.7V45.006H346.616L343.298 53H342.136L338.832 45.006H338.762V53H337.516V43.396H339.672L342.766 50.956H342.822L345.93 43.396H348.072ZM358.075 43.396L357.893 44.642H353.147V47.47H357.445V48.716H353.147V51.754H357.977L358.173 53H351.775V43.396H358.075ZM361.04 43.396C361.758 44.2173 362.309 45.1367 362.692 46.154C363.074 47.162 363.266 48.2073 363.266 49.29C363.266 50.382 363.074 51.4367 362.692 52.454C362.309 53.462 361.758 54.3767 361.04 55.198H360.312C360.872 54.3113 361.31 53.3593 361.628 52.342C361.945 51.3247 362.104 50.3073 362.104 49.29C362.104 48.3007 361.94 47.2927 361.614 46.266C361.296 45.2393 360.862 44.2827 360.312 43.396H361.04Z" fill="#999999"/>
<path d="M251 132V132C251 140.528 257.914 147.442 266.442 147.442H350M449 132V132C449 140.528 442.086 147.442 433.558 147.442H350M350 147.442V215" stroke="#1D1A1B" stroke-width="2" stroke-linecap="round"/>
<rect opacity="0.1" x="501" width="198" height="28" rx="8" fill="#1D1A1B"/>
<path d="M543.74 9.396C544.197 9.396 544.617 9.50333 545 9.718C545.383 9.92333 545.686 10.208 545.91 10.572C546.143 10.9267 546.26 11.3187 546.26 11.748C546.26 12.3173 546.12 12.7933 545.84 13.176C545.56 13.5587 545.14 13.8293 544.58 13.988V14.058C545.131 14.142 545.583 14.3893 545.938 14.8C546.302 15.2107 546.484 15.738 546.484 16.382C546.484 16.8953 546.358 17.3527 546.106 17.754C545.863 18.146 545.537 18.454 545.126 18.678C544.715 18.8927 544.281 19 543.824 19H539.484V9.396H543.74ZM540.856 10.642V13.484H543.46C543.833 13.484 544.165 13.3487 544.454 13.078C544.743 12.8073 544.888 12.4713 544.888 12.07C544.888 11.678 544.748 11.342 544.468 11.062C544.188 10.782 543.852 10.642 543.46 10.642H540.856ZM540.856 14.73V17.754H543.6C544.02 17.754 544.375 17.6093 544.664 17.32C544.963 17.0213 545.112 16.662 545.112 16.242C545.112 15.822 544.963 15.4673 544.664 15.178C544.375 14.8793 544.02 14.73 543.6 14.73H540.856ZM556.751 15.934C556.751 16.5687 556.606 17.1287 556.317 17.614C556.037 18.0993 555.631 18.4773 555.099 18.748C554.576 19.0093 553.97 19.14 553.279 19.14H553.097C552.406 19.14 551.8 19.0093 551.277 18.748C550.764 18.4867 550.362 18.1133 550.073 17.628C549.784 17.1427 549.639 16.578 549.639 15.934V9.396H551.011V15.906C551.011 16.5033 551.216 16.984 551.627 17.348C552.047 17.712 552.579 17.894 553.223 17.894C553.886 17.894 554.408 17.712 554.791 17.348C555.183 16.984 555.379 16.5033 555.379 15.906V9.396H556.751V15.934ZM563.467 9.256C564.521 9.256 565.347 9.48933 565.945 9.956C566.551 10.4227 566.855 11.0853 566.855 11.944V12.112H565.483V11.902C565.483 11.454 565.301 11.1087 564.937 10.866C564.573 10.6233 564.092 10.502 563.495 10.502C562.832 10.502 562.314 10.614 561.941 10.838C561.577 11.0527 561.395 11.3653 561.395 11.776C561.395 12.084 561.497 12.336 561.703 12.532C561.917 12.728 562.179 12.882 562.487 12.994C562.804 13.106 563.238 13.232 563.789 13.372C564.498 13.5587 565.072 13.7407 565.511 13.918C565.949 14.0953 566.323 14.3613 566.631 14.716C566.948 15.0707 567.107 15.542 567.107 16.13C567.107 17.1753 566.785 17.9407 566.141 18.426C565.506 18.902 564.61 19.14 563.453 19.14C562.295 19.14 561.395 18.8973 560.751 18.412C560.116 17.9173 559.799 17.2033 559.799 16.27L559.813 15.99H561.185L561.171 16.284C561.171 16.8253 561.371 17.2313 561.773 17.502C562.183 17.7633 562.748 17.894 563.467 17.894C564.167 17.894 564.717 17.768 565.119 17.516C565.529 17.2547 565.735 16.9 565.735 16.452C565.735 16.0973 565.623 15.8127 565.399 15.598C565.184 15.374 564.909 15.2013 564.573 15.08C564.246 14.9587 563.798 14.8233 563.229 14.674C562.529 14.4873 561.969 14.31 561.549 14.142C561.129 13.974 560.769 13.7173 560.471 13.372C560.172 13.0173 560.023 12.5553 560.023 11.986C560.023 11.062 560.335 10.376 560.961 9.928C561.586 9.48 562.421 9.256 563.467 9.256ZM573.322 9.396V10.642H572.202V17.754H573.322V19H569.71V17.754H570.83V10.642H569.71V9.396H573.322ZM583.616 9.396V19H582.454L577.764 11.972L577.722 11.986V19H576.476V9.396H577.68L582.328 16.34L582.37 16.326V9.396H583.616ZM593.616 9.396L593.434 10.642H588.688V13.47H592.986V14.716H588.688V17.754H593.518L593.714 19H587.316V9.396H593.616ZM599.843 9.256C600.898 9.256 601.724 9.48933 602.321 9.956C602.928 10.4227 603.231 11.0853 603.231 11.944V12.112H601.859V11.902C601.859 11.454 601.677 11.1087 601.313 10.866C600.949 10.6233 600.469 10.502 599.871 10.502C599.209 10.502 598.691 10.614 598.317 10.838C597.953 11.0527 597.771 11.3653 597.771 11.776C597.771 12.084 597.874 12.336 598.079 12.532C598.294 12.728 598.555 12.882 598.863 12.994C599.181 13.106 599.615 13.232 600.165 13.372C600.875 13.5587 601.449 13.7407 601.887 13.918C602.326 14.0953 602.699 14.3613 603.007 14.716C603.325 15.0707 603.483 15.542 603.483 16.13C603.483 17.1753 603.161 17.9407 602.517 18.426C601.883 18.902 600.987 19.14 599.829 19.14C598.672 19.14 597.771 18.8973 597.127 18.412C596.493 17.9173 596.175 17.2033 596.175 16.27L596.189 15.99H597.561L597.547 16.284C597.547 16.8253 597.748 17.2313 598.149 17.502C598.56 17.7633 599.125 17.894 599.843 17.894C600.543 17.894 601.094 17.768 601.495 17.516C601.906 17.2547 602.111 16.9 602.111 16.452C602.111 16.0973 601.999 15.8127 601.775 15.598C601.561 15.374 601.285 15.2013 600.949 15.08C600.623 14.9587 600.175 14.8233 599.605 14.674C598.905 14.4873 598.345 14.31 597.925 14.142C597.505 13.974 597.146 13.7173 596.847 13.372C596.549 13.0173 596.399 12.5553 596.399 11.986C596.399 11.062 596.712 10.376 597.337 9.928C597.963 9.48 598.798 9.256 599.843 9.256ZM609.741 9.256C610.795 9.256 611.621 9.48933 612.219 9.956C612.825 10.4227 613.129 11.0853 613.129 11.944V12.112H611.757V11.902C611.757 11.454 611.575 11.1087 611.211 10.866C610.847 10.6233 610.366 10.502 609.769 10.502C609.106 10.502 608.588 10.614 608.215 10.838C607.851 11.0527 607.669 11.3653 607.669 11.776C607.669 12.084 607.771 12.336 607.977 12.532C608.191 12.728 608.453 12.882 608.761 12.994C609.078 13.106 609.512 13.232 610.063 13.372C610.772 13.5587 611.346 13.7407 611.785 13.918C612.223 14.0953 612.597 14.3613 612.905 14.716C613.222 15.0707 613.381 15.542 613.381 16.13C613.381 17.1753 613.059 17.9407 612.415 18.426C611.78 18.902 610.884 19.14 609.727 19.14C608.569 19.14 607.669 18.8973 607.025 18.412C606.39 17.9173 606.073 17.2033 606.073 16.27L606.087 15.99H607.459L607.445 16.284C607.445 16.8253 607.645 17.2313 608.047 17.502C608.457 17.7633 609.022 17.894 609.741 17.894C610.441 17.894 610.991 17.768 611.393 17.516C611.803 17.2547 612.009 16.9 612.009 16.452C612.009 16.0973 611.897 15.8127 611.673 15.598C611.458 15.374 611.183 15.2013 610.847 15.08C610.52 14.9587 610.072 14.8233 609.503 14.674C608.803 14.4873 608.243 14.31 607.823 14.142C607.403 13.974 607.043 13.7173 606.745 13.372C606.446 13.0173 606.297 12.5553 606.297 11.986C606.297 11.062 606.609 10.376 607.235 9.928C607.86 9.48 608.695 9.256 609.741 9.256ZM627.522 9.396V10.642H624.512V19H623.14V10.642H620.13V9.396H627.522ZM636.582 9.396L636.4 10.642H631.654V13.47H635.952V14.716H631.654V17.754H636.484L636.68 19H630.282V9.396H636.582ZM643.733 9.396L647.485 19H646.001L645.189 16.914H640.597L639.799 19H638.469L642.221 9.396H643.733ZM642.949 11.048H642.865L641.087 15.668H644.713L642.949 11.048ZM660.509 9.396V19H659.137V11.006H659.053L655.735 19H654.573L651.269 11.006H651.199V19H649.953V9.396H652.109L655.203 16.956H655.259L658.367 9.396H660.509Z" fill="#1D1A1B"/>
<rect opacity="0.1" x="501" y="73" width="198" height="28" rx="8" fill="#1D1A1B"/>
<path d="M529.684 82.396C530.225 82.396 530.715 82.5173 531.154 82.76C531.592 83.0027 531.933 83.3387 532.176 83.768C532.428 84.188 532.554 84.664 532.554 85.196C532.554 85.728 532.428 86.2087 532.176 86.638C531.933 87.058 531.592 87.3893 531.154 87.632C530.715 87.8747 530.225 87.996 529.684 87.996H526.912V92H525.54V82.396H529.684ZM526.912 83.642V86.75H529.558C529.996 86.75 530.374 86.6007 530.692 86.302C531.018 85.994 531.182 85.6253 531.182 85.196C531.182 84.7573 531.018 84.3887 530.692 84.09C530.374 83.7913 529.996 83.642 529.558 83.642H526.912ZM539.484 82.396C540.333 82.396 541.029 82.5967 541.57 82.998C542.121 83.3993 542.396 83.95 542.396 84.65C542.396 85.2753 542.228 85.8073 541.892 86.246C541.565 86.6847 541.159 86.9507 540.674 87.044V87.114C541.122 87.2913 541.491 87.5993 541.78 88.038C542.069 88.4767 542.214 89.004 542.214 89.62C542.214 90.1333 542.242 90.5207 542.298 90.782C542.354 91.0433 542.429 91.2253 542.522 91.328C542.615 91.4307 542.751 91.51 542.928 91.566V91.958C542.723 92.042 542.503 92.084 542.27 92.084C541.822 92.084 541.472 91.9533 541.22 91.692C540.968 91.4213 540.842 90.9173 540.842 90.18C540.842 89.424 540.683 88.836 540.366 88.416C540.058 87.9867 539.671 87.772 539.204 87.772H536.768V92H535.396V82.396H539.484ZM536.768 83.642V86.526H539.498C539.899 86.526 540.254 86.3907 540.562 86.12C540.87 85.8493 541.024 85.5133 541.024 85.112V85.056C541.024 84.6453 540.884 84.3093 540.604 84.048C540.324 83.7773 539.955 83.642 539.498 83.642H536.768ZM549.437 82.256C550.23 82.256 550.926 82.4287 551.523 82.774C552.12 83.1193 552.582 83.6187 552.909 84.272C553.245 84.916 553.413 85.6813 553.413 86.568V87.828C553.413 88.7147 553.245 89.4847 552.909 90.138C552.582 90.782 552.12 91.2767 551.523 91.622C550.926 91.9673 550.23 92.14 549.437 92.14C548.644 92.14 547.948 91.9673 547.351 91.622C546.754 91.2767 546.287 90.782 545.951 90.138C545.624 89.4847 545.461 88.7147 545.461 87.828V86.568C545.461 85.6813 545.624 84.916 545.951 84.272C546.287 83.6187 546.754 83.1193 547.351 82.774C547.948 82.4287 548.644 82.256 549.437 82.256ZM549.437 83.502C548.616 83.502 547.976 83.7633 547.519 84.286C547.062 84.8087 546.833 85.5693 546.833 86.568V87.828C546.833 88.8267 547.052 89.5873 547.491 90.11C547.939 90.6327 548.588 90.894 549.437 90.894C550.258 90.894 550.898 90.6373 551.355 90.124C551.812 89.6013 552.041 88.836 552.041 87.828V86.568C552.041 85.5693 551.817 84.8087 551.369 84.286C550.93 83.7633 550.286 83.502 549.437 83.502ZM560.013 82.396C560.816 82.396 561.516 82.5733 562.113 82.928C562.71 83.2733 563.172 83.7727 563.499 84.426C563.826 85.07 563.989 85.8307 563.989 86.708V87.688C563.989 88.5653 563.826 89.3307 563.499 89.984C563.172 90.628 562.71 91.1273 562.113 91.482C561.516 91.8273 560.816 92 560.013 92H556.681V82.396H560.013ZM558.053 83.642V90.754H560.013C560.844 90.754 561.483 90.4973 561.931 89.984C562.388 89.4613 562.617 88.696 562.617 87.688V86.708C562.617 85.7187 562.393 84.9627 561.945 84.44C561.506 83.908 560.862 83.642 560.013 83.642H558.053ZM574.276 88.934C574.276 89.5687 574.132 90.1287 573.842 90.614C573.562 91.0993 573.156 91.4773 572.624 91.748C572.102 92.0093 571.495 92.14 570.804 92.14H570.622C569.932 92.14 569.325 92.0093 568.802 91.748C568.289 91.4867 567.888 91.1133 567.598 90.628C567.309 90.1427 567.164 89.578 567.164 88.934V82.396H568.536V88.906C568.536 89.5033 568.742 89.984 569.152 90.348C569.572 90.712 570.104 90.894 570.748 90.894C571.411 90.894 571.934 90.712 572.316 90.348C572.708 89.984 572.904 89.5033 572.904 88.906V82.396H574.276V88.934ZM581.412 82.256C582.159 82.256 582.812 82.41 583.372 82.718C583.932 83.026 584.361 83.4693 584.66 84.048C584.968 84.6173 585.122 85.294 585.122 86.078H583.75C583.75 85.266 583.549 84.636 583.148 84.188C582.747 83.7307 582.168 83.502 581.412 83.502C580.572 83.502 579.933 83.7633 579.494 84.286C579.055 84.7993 578.836 85.56 578.836 86.568V87.828C578.836 88.8267 579.051 89.5873 579.48 90.11C579.909 90.6327 580.544 90.894 581.384 90.894C582.168 90.894 582.765 90.67 583.176 90.222C583.596 89.774 583.806 89.1487 583.806 88.346H585.122C585.122 89.1207 584.968 89.7927 584.66 90.362C584.361 90.9313 583.932 91.37 583.372 91.678C582.812 91.986 582.159 92.14 581.412 92.14C580.171 92.14 579.2 91.762 578.5 91.006C577.809 90.2407 577.464 89.1813 577.464 87.828V86.568C577.464 85.224 577.809 84.1693 578.5 83.404C579.2 82.6387 580.171 82.256 581.412 82.256ZM594.741 82.396V83.642H591.731V92H590.359V83.642H587.349V82.396H594.741ZM612.595 82.396V92H611.223V84.006H611.139L607.821 92H606.659L603.355 84.006H603.285V92H602.039V82.396H604.195L607.289 89.956H607.345L610.453 82.396H612.595ZM620.33 82.396L624.082 92H622.598L621.786 89.914H617.194L616.396 92H615.066L618.818 82.396H620.33ZM619.546 84.048H619.462L617.684 88.668H621.31L619.546 84.048ZM633.69 82.396V92H632.528L627.838 84.972L627.796 84.986V92H626.55V82.396H627.754L632.402 89.34L632.444 89.326V82.396H633.69ZM641.423 82.396L645.175 92H643.691L642.879 89.914H638.287L637.489 92H636.159L639.911 82.396H641.423ZM640.639 84.048H640.555L638.777 88.668H642.403L640.639 84.048ZM651.172 82.256C651.919 82.256 652.567 82.4007 653.118 82.69C653.678 82.9793 654.107 83.39 654.406 83.922C654.705 84.454 654.854 85.07 654.854 85.77H653.482C653.482 85.0513 653.281 84.496 652.88 84.104C652.488 83.7027 651.919 83.502 651.172 83.502C650.332 83.502 649.693 83.7633 649.254 84.286C648.815 84.7993 648.596 85.56 648.596 86.568V87.828C648.596 88.836 648.811 89.6013 649.24 90.124C649.679 90.6373 650.323 90.894 651.172 90.894C651.984 90.894 652.577 90.6933 652.95 90.292C653.323 89.8813 653.51 89.2327 653.51 88.346V88.164H650.794V86.932H654.854V90.208C654.854 90.9827 654.882 91.58 654.938 92H654.126C654.005 91.6173 653.911 91.2347 653.846 90.852C653.239 91.7107 652.348 92.14 651.172 92.14C649.931 92.14 648.96 91.762 648.26 91.006C647.569 90.2407 647.224 89.1813 647.224 87.828V86.568C647.224 85.224 647.569 84.1693 648.26 83.404C648.96 82.6387 649.931 82.256 651.172 82.256ZM664.538 82.396L664.356 83.642H659.61V86.47H663.908V87.716H659.61V90.754H664.44L664.636 92H658.238V82.396H664.538ZM671.745 82.396C672.595 82.396 673.29 82.5967 673.831 82.998C674.382 83.3993 674.657 83.95 674.657 84.65C674.657 85.2753 674.489 85.8073 674.153 86.246C673.827 86.6847 673.421 86.9507 672.935 87.044V87.114C673.383 87.2913 673.752 87.5993 674.041 88.038C674.331 88.4767 674.475 89.004 674.475 89.62C674.475 90.1333 674.503 90.5207 674.559 90.782C674.615 91.0433 674.69 91.2253 674.783 91.328C674.877 91.4307 675.012 91.51 675.189 91.566V91.958C674.984 92.042 674.765 92.084 674.531 92.084C674.083 92.084 673.733 91.9533 673.481 91.692C673.229 91.4213 673.103 90.9173 673.103 90.18C673.103 89.424 672.945 88.836 672.627 88.416C672.319 87.9867 671.932 87.772 671.465 87.772H669.029V92H667.657V82.396H671.745ZM669.029 83.642V86.526H671.759C672.161 86.526 672.515 86.3907 672.823 86.12C673.131 85.8493 673.285 85.5133 673.285 85.112V85.056C673.285 84.6453 673.145 84.3093 672.865 84.048C672.585 83.7773 672.217 83.642 671.759 83.642H669.029Z" fill="#1D1A1B"/>
<rect opacity="0.1" width="198" height="28" rx="8" fill="#1D1A1B"/>
<path d="M24.3587 9.396C25.1613 9.396 25.8613 9.57333 26.4587 9.928C27.056 10.2733 27.518 10.7727 27.8447 11.426C28.1713 12.07 28.3347 12.8307 28.3347 13.708V14.688C28.3347 15.5653 28.1713 16.3307 27.8447 16.984C27.518 17.628 27.056 18.1273 26.4587 18.482C25.8613 18.8273 25.1613 19 24.3587 19H21.0267V9.396H24.3587ZM22.3987 10.642V17.754H24.3587C25.1893 17.754 25.8287 17.4973 26.2767 16.984C26.734 16.4613 26.9627 15.696 26.9627 14.688V13.708C26.9627 12.7187 26.7387 11.9627 26.2907 11.44C25.852 10.908 25.208 10.642 24.3587 10.642H22.3987ZM37.8939 9.396L37.7119 10.642H32.9659V13.47H37.2639V14.716H32.9659V17.754H37.7959L37.9919 19H31.5939V9.396H37.8939ZM48.0968 9.396L44.6808 19H43.2108L39.7948 9.396H41.2648L43.9668 17.138H44.0508L46.7668 9.396H48.0968ZM56.8683 9.396L56.6863 10.642H51.9403V13.47H56.2383V14.716H51.9403V17.754H56.7703L56.9663 19H50.5683V9.396H56.8683ZM61.3591 9.396V17.754H65.7691L65.9651 19H59.9871V9.396H61.3591ZM72.155 9.256C72.9483 9.256 73.6437 9.42867 74.241 9.774C74.8383 10.1193 75.3003 10.6187 75.627 11.272C75.963 11.916 76.131 12.6813 76.131 13.568V14.828C76.131 15.7147 75.963 16.4847 75.627 17.138C75.3003 17.782 74.8383 18.2767 74.241 18.622C73.6437 18.9673 72.9483 19.14 72.155 19.14C71.3617 19.14 70.6663 18.9673 70.069 18.622C69.4717 18.2767 69.005 17.782 68.669 17.138C68.3423 16.4847 68.179 15.7147 68.179 14.828V13.568C68.179 12.6813 68.3423 11.916 68.669 11.272C69.005 10.6187 69.4717 10.1193 70.069 9.774C70.6663 9.42867 71.3617 9.256 72.155 9.256ZM72.155 10.502C71.3337 10.502 70.6943 10.7633 70.237 11.286C69.7797 11.8087 69.551 12.5693 69.551 13.568V14.828C69.551 15.8267 69.7703 16.5873 70.209 17.11C70.657 17.6327 71.3057 17.894 72.155 17.894C72.9763 17.894 73.6157 17.6373 74.073 17.124C74.5303 16.6013 74.759 15.836 74.759 14.828V13.568C74.759 12.5693 74.535 11.8087 74.087 11.286C73.6483 10.7633 73.0043 10.502 72.155 10.502ZM83.543 9.396C84.0843 9.396 84.5743 9.51733 85.013 9.76C85.4517 10.0027 85.7923 10.3387 86.035 10.768C86.287 11.188 86.413 11.664 86.413 12.196C86.413 12.728 86.287 13.2087 86.035 13.638C85.7923 14.058 85.4517 14.3893 85.013 14.632C84.5743 14.8747 84.0843 14.996 83.543 14.996H80.771V19H79.399V9.396H83.543ZM80.771 10.642V13.75H83.417C83.8557 13.75 84.2337 13.6007 84.551 13.302C84.8777 12.994 85.041 12.6253 85.041 12.196C85.041 11.7573 84.8777 11.3887 84.551 11.09C84.2337 10.7913 83.8557 10.642 83.417 10.642H80.771ZM99.8113 9.396V19H98.4393V11.006H98.3553L95.0373 19H93.8753L90.5713 11.006H90.5013V19H89.2553V9.396H91.4113L94.5053 16.956H94.5613L97.6693 9.396H99.8113ZM109.814 9.396L109.632 10.642H104.886V13.47H109.184V14.716H104.886V17.754H109.716L109.912 19H103.514V9.396H109.814ZM120.073 9.396V19H118.911L114.221 11.972L114.179 11.986V19H112.933V9.396H114.137L118.785 16.34L118.827 16.326V9.396H120.073ZM130.228 9.396V10.642H127.218V19H125.846V10.642H122.836V9.396H130.228ZM143.979 9.396V10.642H140.969V19H139.597V10.642H136.587V9.396H143.979ZM153.039 9.396L152.857 10.642H148.111V13.47H152.409V14.716H148.111V17.754H152.941L153.137 19H146.739V9.396H153.039ZM160.19 9.396L163.942 19H162.458L161.646 16.914H157.054L156.256 19H154.926L158.678 9.396H160.19ZM159.406 11.048H159.322L157.544 15.668H161.17L159.406 11.048ZM176.967 9.396V19H175.595V11.006H175.511L172.193 19H171.031L167.727 11.006H167.657V19H166.411V9.396H168.567L171.661 16.956H171.717L174.825 9.396H176.967Z" fill="#1D1A1B"/>
<rect x="251" y="73" width="198" height="28" rx="8" fill="#0B0B0B"/>
<path d="M282.773 88.934C282.773 89.5687 282.629 90.1287 282.339 90.614C282.059 91.0993 281.653 91.4773 281.121 91.748C280.599 92.0093 279.992 92.14 279.301 92.14H279.119C278.429 92.14 277.822 92.0093 277.299 91.748C276.786 91.4867 276.385 91.1133 276.095 90.628C275.806 90.1427 275.661 89.578 275.661 88.934V82.396H277.033V88.906C277.033 89.5033 277.239 89.984 277.649 90.348C278.069 90.712 278.601 90.894 279.245 90.894C279.908 90.894 280.431 90.712 280.813 90.348C281.205 89.984 281.401 89.5033 281.401 88.906V82.396H282.773V88.934ZM290.301 86.946L293.787 92H292.135L289.475 88.136L286.745 92H285.219L288.719 87.03L285.541 82.41H287.193L289.545 85.84C290.058 85.1213 290.604 84.342 291.183 83.502L291.757 82.69L291.953 82.41H293.479L290.301 86.946ZM303.235 82.396L296.389 94.394H295.255L302.115 82.396H303.235ZM312.876 88.934C312.876 89.5687 312.731 90.1287 312.442 90.614C312.162 91.0993 311.756 91.4773 311.224 91.748C310.701 92.0093 310.094 92.14 309.404 92.14H309.222C308.531 92.14 307.924 92.0093 307.402 91.748C306.888 91.4867 306.487 91.1133 306.198 90.628C305.908 90.1427 305.764 89.578 305.764 88.934V82.396H307.136V88.906C307.136 89.5033 307.341 89.984 307.752 90.348C308.172 90.712 308.704 90.894 309.348 90.894C310.01 90.894 310.533 90.712 310.916 90.348C311.308 89.984 311.504 89.5033 311.504 88.906V82.396H312.876V88.934ZM319.549 82.396V83.642H318.429V90.754H319.549V92H315.937V90.754H317.057V83.642H315.937V82.396H319.549ZM330.769 82.256C331.515 82.256 332.169 82.41 332.729 82.718C333.289 83.026 333.718 83.4693 334.017 84.048C334.325 84.6173 334.479 85.294 334.479 86.078H333.107C333.107 85.266 332.906 84.636 332.505 84.188C332.103 83.7307 331.525 83.502 330.769 83.502C329.929 83.502 329.289 83.7633 328.851 84.286C328.412 84.7993 328.193 85.56 328.193 86.568V87.828C328.193 88.8267 328.407 89.5873 328.837 90.11C329.266 90.6327 329.901 90.894 330.741 90.894C331.525 90.894 332.122 90.67 332.533 90.222C332.953 89.774 333.163 89.1487 333.163 88.346H334.479C334.479 89.1207 334.325 89.7927 334.017 90.362C333.718 90.9313 333.289 91.37 332.729 91.678C332.169 91.986 331.515 92.14 330.769 92.14C329.527 92.14 328.557 91.762 327.857 91.006C327.166 90.2407 326.821 89.1813 326.821 87.828V86.568C326.821 85.224 327.166 84.1693 327.857 83.404C328.557 82.6387 329.527 82.256 330.769 82.256ZM341.186 82.256C341.979 82.256 342.675 82.4287 343.272 82.774C343.869 83.1193 344.331 83.6187 344.658 84.272C344.994 84.916 345.162 85.6813 345.162 86.568V87.828C345.162 88.7147 344.994 89.4847 344.658 90.138C344.331 90.782 343.869 91.2767 343.272 91.622C342.675 91.9673 341.979 92.14 341.186 92.14C340.393 92.14 339.697 91.9673 339.1 91.622C338.503 91.2767 338.036 90.782 337.7 90.138C337.373 89.4847 337.21 88.7147 337.21 87.828V86.568C337.21 85.6813 337.373 84.916 337.7 84.272C338.036 83.6187 338.503 83.1193 339.1 82.774C339.697 82.4287 340.393 82.256 341.186 82.256ZM341.186 83.502C340.365 83.502 339.725 83.7633 339.268 84.286C338.811 84.8087 338.582 85.5693 338.582 86.568V87.828C338.582 88.8267 338.801 89.5873 339.24 90.11C339.688 90.6327 340.337 90.894 341.186 90.894C342.007 90.894 342.647 90.6373 343.104 90.124C343.561 89.6013 343.79 88.836 343.79 87.828V86.568C343.79 85.5693 343.566 84.8087 343.118 84.286C342.679 83.7633 342.035 83.502 341.186 83.502ZM355.57 82.396V92H354.408L349.718 84.972L349.676 84.986V92H348.43V82.396H349.634L354.282 89.34L354.324 89.326V82.396H355.57ZM362.379 82.256C363.433 82.256 364.259 82.4893 364.857 82.956C365.463 83.4227 365.767 84.0853 365.767 84.944V85.112H364.395V84.902C364.395 84.454 364.213 84.1087 363.849 83.866C363.485 83.6233 363.004 83.502 362.407 83.502C361.744 83.502 361.226 83.614 360.853 83.838C360.489 84.0527 360.307 84.3653 360.307 84.776C360.307 85.084 360.409 85.336 360.615 85.532C360.829 85.728 361.091 85.882 361.399 85.994C361.716 86.106 362.15 86.232 362.701 86.372C363.41 86.5587 363.984 86.7407 364.423 86.918C364.861 87.0953 365.235 87.3613 365.543 87.716C365.86 88.0707 366.019 88.542 366.019 89.13C366.019 90.1753 365.697 90.9407 365.053 91.426C364.418 91.902 363.522 92.14 362.365 92.14C361.207 92.14 360.307 91.8973 359.663 91.412C359.028 90.9173 358.711 90.2033 358.711 89.27L358.725 88.99H360.097L360.083 89.284C360.083 89.8253 360.283 90.2313 360.685 90.502C361.095 90.7633 361.66 90.894 362.379 90.894C363.079 90.894 363.629 90.768 364.031 90.516C364.441 90.2547 364.647 89.9 364.647 89.452C364.647 89.0973 364.535 88.8127 364.311 88.598C364.096 88.374 363.821 88.2013 363.485 88.08C363.158 87.9587 362.71 87.8233 362.141 87.674C361.441 87.4873 360.881 87.31 360.461 87.142C360.041 86.974 359.681 86.7173 359.383 86.372C359.084 86.0173 358.935 85.5553 358.935 84.986C358.935 84.062 359.247 83.376 359.873 82.928C360.498 82.48 361.333 82.256 362.379 82.256ZM376.196 88.934C376.196 89.5687 376.051 90.1287 375.762 90.614C375.482 91.0993 375.076 91.4773 374.544 91.748C374.021 92.0093 373.415 92.14 372.724 92.14H372.542C371.851 92.14 371.245 92.0093 370.722 91.748C370.209 91.4867 369.807 91.1133 369.518 90.628C369.229 90.1427 369.084 89.578 369.084 88.934V82.396H370.456V88.906C370.456 89.5033 370.661 89.984 371.072 90.348C371.492 90.712 372.024 90.894 372.668 90.894C373.331 90.894 373.853 90.712 374.236 90.348C374.628 89.984 374.824 89.5033 374.824 88.906V82.396H376.196V88.934ZM381.176 82.396V90.754H385.586L385.782 92H379.804V82.396H381.176ZM394.884 82.396V83.642H391.874V92H390.502V83.642H387.492V82.396H394.884ZM401.675 82.396L405.427 92H403.943L403.131 89.914H398.539L397.741 92H396.411L400.163 82.396H401.675ZM400.891 84.048H400.807L399.029 88.668H402.655L400.891 84.048ZM415.036 82.396V92H413.874L409.184 84.972L409.142 84.986V92H407.896V82.396H409.1L413.748 89.34L413.79 89.326V82.396H415.036ZM425.191 82.396V83.642H422.181V92H420.809V83.642H417.799V82.396H425.191Z" fill="#E9E9E9"/>
<rect opacity="0.1" y="73" width="198" height="28" rx="8" fill="#1D1A1B"/>
<path d="M30.2045 82.396C30.6619 82.396 31.0819 82.5033 31.4645 82.718C31.8472 82.9233 32.1505 83.208 32.3745 83.572C32.6079 83.9267 32.7245 84.3187 32.7245 84.748C32.7245 85.3173 32.5845 85.7933 32.3045 86.176C32.0245 86.5587 31.6045 86.8293 31.0445 86.988V87.058C31.5952 87.142 32.0479 87.3893 32.4025 87.8C32.7665 88.2107 32.9485 88.738 32.9485 89.382C32.9485 89.8953 32.8225 90.3527 32.5705 90.754C32.3279 91.146 32.0012 91.454 31.5905 91.678C31.1799 91.8927 30.7459 92 30.2885 92H25.9485V82.396H30.2045ZM27.3205 83.642V86.484H29.9245C30.2979 86.484 30.6292 86.3487 30.9185 86.078C31.2079 85.8073 31.3525 85.4713 31.3525 85.07C31.3525 84.678 31.2125 84.342 30.9325 84.062C30.6525 83.782 30.3165 83.642 29.9245 83.642H27.3205ZM27.3205 87.73V90.754H30.0645C30.4845 90.754 30.8392 90.6093 31.1285 90.32C31.4272 90.0213 31.5765 89.662 31.5765 89.242C31.5765 88.822 31.4272 88.4673 31.1285 88.178C30.8392 87.8793 30.4845 87.73 30.0645 87.73H27.3205ZM43.2157 88.934C43.2157 89.5687 43.071 90.1287 42.7817 90.614C42.5017 91.0993 42.0957 91.4773 41.5637 91.748C41.041 92.0093 40.4344 92.14 39.7437 92.14H39.5617C38.871 92.14 38.2644 92.0093 37.7417 91.748C37.2284 91.4867 36.827 91.1133 36.5377 90.628C36.2484 90.1427 36.1037 89.578 36.1037 88.934V82.396H37.4757V88.906C37.4757 89.5033 37.681 89.984 38.0917 90.348C38.5117 90.712 39.0437 90.894 39.6877 90.894C40.3504 90.894 40.873 90.712 41.2557 90.348C41.6477 89.984 41.8437 89.5033 41.8437 88.906V82.396H43.2157V88.934ZM49.9313 82.256C50.986 82.256 51.812 82.4893 52.4093 82.956C53.016 83.4227 53.3193 84.0853 53.3193 84.944V85.112H51.9473V84.902C51.9473 84.454 51.7653 84.1087 51.4013 83.866C51.0373 83.6233 50.5566 83.502 49.9593 83.502C49.2966 83.502 48.7786 83.614 48.4053 83.838C48.0413 84.0527 47.8593 84.3653 47.8593 84.776C47.8593 85.084 47.962 85.336 48.1673 85.532C48.382 85.728 48.6433 85.882 48.9513 85.994C49.2686 86.106 49.7026 86.232 50.2533 86.372C50.9626 86.5587 51.5366 86.7407 51.9753 86.918C52.414 87.0953 52.7873 87.3613 53.0953 87.716C53.4126 88.0707 53.5713 88.542 53.5713 89.13C53.5713 90.1753 53.2493 90.9407 52.6053 91.426C51.9706 91.902 51.0746 92.14 49.9173 92.14C48.76 92.14 47.8593 91.8973 47.2153 91.412C46.5806 90.9173 46.2633 90.2033 46.2633 89.27L46.2773 88.99H47.6493L47.6353 89.284C47.6353 89.8253 47.836 90.2313 48.2373 90.502C48.648 90.7633 49.2126 90.894 49.9313 90.894C50.6313 90.894 51.182 90.768 51.5833 90.516C51.994 90.2547 52.1993 89.9 52.1993 89.452C52.1993 89.0973 52.0873 88.8127 51.8633 88.598C51.6486 88.374 51.3733 88.2013 51.0373 88.08C50.7106 87.9587 50.2626 87.8233 49.6933 87.674C48.9933 87.4873 48.4333 87.31 48.0133 87.142C47.5933 86.974 47.234 86.7173 46.9353 86.372C46.6366 86.0173 46.4873 85.5553 46.4873 84.986C46.4873 84.062 46.8 83.376 47.4253 82.928C48.0506 82.48 48.886 82.256 49.9313 82.256ZM59.7867 82.396V83.642H58.6667V90.754H59.7867V92H56.1747V90.754H57.2947V83.642H56.1747V82.396H59.7867ZM70.0803 82.396V92H68.9183L64.2283 84.972L64.1863 84.986V92H62.9403V82.396H64.1443L68.7923 89.34L68.8343 89.326V82.396H70.0803ZM80.081 82.396L79.899 83.642H75.153V86.47H79.451V87.716H75.153V90.754H79.983L80.179 92H73.781V82.396H80.081ZM86.3078 82.256C87.3625 82.256 88.1885 82.4893 88.7858 82.956C89.3925 83.4227 89.6958 84.0853 89.6958 84.944V85.112H88.3238V84.902C88.3238 84.454 88.1418 84.1087 87.7778 83.866C87.4138 83.6233 86.9331 83.502 86.3358 83.502C85.6731 83.502 85.1551 83.614 84.7818 83.838C84.4178 84.0527 84.2358 84.3653 84.2358 84.776C84.2358 85.084 84.3385 85.336 84.5438 85.532C84.7585 85.728 85.0198 85.882 85.3278 85.994C85.6451 86.106 86.0791 86.232 86.6298 86.372C87.3391 86.5587 87.9131 86.7407 88.3518 86.918C88.7905 87.0953 89.1638 87.3613 89.4718 87.716C89.7891 88.0707 89.9478 88.542 89.9478 89.13C89.9478 90.1753 89.6258 90.9407 88.9818 91.426C88.3471 91.902 87.4511 92.14 86.2938 92.14C85.1365 92.14 84.2358 91.8973 83.5918 91.412C82.9571 90.9173 82.6398 90.2033 82.6398 89.27L82.6538 88.99H84.0258L84.0118 89.284C84.0118 89.8253 84.2125 90.2313 84.6138 90.502C85.0245 90.7633 85.5891 90.894 86.3078 90.894C87.0078 90.894 87.5585 90.768 87.9598 90.516C88.3705 90.2547 88.5758 89.9 88.5758 89.452C88.5758 89.0973 88.4638 88.8127 88.2398 88.598C88.0251 88.374 87.7498 88.2013 87.4138 88.08C87.0871 87.9587 86.6391 87.8233 86.0698 87.674C85.3698 87.4873 84.8098 87.31 84.3898 87.142C83.9698 86.974 83.6105 86.7173 83.3118 86.372C83.0131 86.0173 82.8638 85.5553 82.8638 84.986C82.8638 84.062 83.1765 83.376 83.8018 82.928C84.4271 82.48 85.2625 82.256 86.3078 82.256ZM96.2051 82.256C97.2598 82.256 98.0858 82.4893 98.6831 82.956C99.2898 83.4227 99.5931 84.0853 99.5931 84.944V85.112H98.2211V84.902C98.2211 84.454 98.0391 84.1087 97.6751 83.866C97.3111 83.6233 96.8305 83.502 96.2331 83.502C95.5705 83.502 95.0525 83.614 94.6791 83.838C94.3151 84.0527 94.1331 84.3653 94.1331 84.776C94.1331 85.084 94.2358 85.336 94.4411 85.532C94.6558 85.728 94.9171 85.882 95.2251 85.994C95.5425 86.106 95.9765 86.232 96.5271 86.372C97.2365 86.5587 97.8105 86.7407 98.2491 86.918C98.6878 87.0953 99.0611 87.3613 99.3691 87.716C99.6865 88.0707 99.8451 88.542 99.8451 89.13C99.8451 90.1753 99.5231 90.9407 98.8791 91.426C98.2445 91.902 97.3485 92.14 96.1911 92.14C95.0338 92.14 94.1331 91.8973 93.4891 91.412C92.8545 90.9173 92.5371 90.2033 92.5371 89.27L92.5511 88.99H93.9231L93.9091 89.284C93.9091 89.8253 94.1098 90.2313 94.5111 90.502C94.9218 90.7633 95.4865 90.894 96.2051 90.894C96.9051 90.894 97.4558 90.768 97.8571 90.516C98.2678 90.2547 98.4731 89.9 98.4731 89.452C98.4731 89.0973 98.3611 88.8127 98.1371 88.598C97.9225 88.374 97.6471 88.2013 97.3111 88.08C96.9845 87.9587 96.5365 87.8233 95.9671 87.674C95.2671 87.4873 94.7071 87.31 94.2871 87.142C93.8671 86.974 93.5078 86.7173 93.2091 86.372C92.9105 86.0173 92.7611 85.5553 92.7611 84.986C92.7611 84.062 93.0738 83.376 93.6991 82.928C94.3245 82.48 95.1598 82.256 96.2051 82.256ZM111.564 82.396L115.316 92H113.832L113.02 89.914H108.428L107.63 92H106.3L110.052 82.396H111.564ZM110.78 84.048H110.696L108.918 88.668H112.544L110.78 84.048ZM124.925 82.396V92H123.763L119.073 84.972L119.031 84.986V92H117.785V82.396H118.989L123.637 89.34L123.679 89.326V82.396H124.925ZM132.658 82.396L136.41 92H134.926L134.114 89.914H129.522L128.724 92H127.394L131.146 82.396H132.658ZM131.874 84.048H131.79L130.012 88.668H133.638L131.874 84.048ZM140.251 82.396V90.754H144.661L144.857 92H138.879V82.396H140.251ZM154.281 82.396L150.907 88.29V92H149.535V88.29L146.147 82.396H147.715L150.277 86.862H150.333L152.867 82.396H154.281ZM159.744 82.256C160.799 82.256 161.625 82.4893 162.222 82.956C162.829 83.4227 163.132 84.0853 163.132 84.944V85.112H161.76V84.902C161.76 84.454 161.578 84.1087 161.214 83.866C160.85 83.6233 160.37 83.502 159.772 83.502C159.11 83.502 158.592 83.614 158.218 83.838C157.854 84.0527 157.672 84.3653 157.672 84.776C157.672 85.084 157.775 85.336 157.98 85.532C158.195 85.728 158.456 85.882 158.764 85.994C159.082 86.106 159.516 86.232 160.066 86.372C160.776 86.5587 161.35 86.7407 161.788 86.918C162.227 87.0953 162.6 87.3613 162.908 87.716C163.226 88.0707 163.384 88.542 163.384 89.13C163.384 90.1753 163.062 90.9407 162.418 91.426C161.784 91.902 160.888 92.14 159.73 92.14C158.573 92.14 157.672 91.8973 157.028 91.412C156.394 90.9173 156.076 90.2033 156.076 89.27L156.09 88.99H157.462L157.448 89.284C157.448 89.8253 157.649 90.2313 158.05 90.502C158.461 90.7633 159.026 90.894 159.744 90.894C160.444 90.894 160.995 90.768 161.396 90.516C161.807 90.2547 162.012 89.9 162.012 89.452C162.012 89.0973 161.9 88.8127 161.676 88.598C161.462 88.374 161.186 88.2013 160.85 88.08C160.524 87.9587 160.076 87.8233 159.506 87.674C158.806 87.4873 158.246 87.31 157.826 87.142C157.406 86.974 157.047 86.7173 156.748 86.372C156.45 86.0173 156.3 85.5553 156.3 84.986C156.3 84.062 156.613 83.376 157.238 82.928C157.864 82.48 158.699 82.256 159.744 82.256ZM172.988 82.396V83.642H169.978V92H168.606V83.642H165.596V82.396H172.988Z" fill="#1D1A1B"/>
</g>
<defs>
<clipPath id="clip0_1101_5385">
<rect width="699" height="215" fill="white"/>
</clipPath>
</defs>
</svg>
