<svg width="719" height="216" viewBox="0 0 719 216" fill="none" xmlns="http://www.w3.org/2000/svg">
<path fill-rule="evenodd" clip-rule="evenodd" d="M283.442 148.442C274.361 148.442 267 141.081 267 132H269C269 139.976 275.466 146.442 283.442 146.442H450.558C458.534 146.442 465 139.976 465 132H467C467 141.081 459.639 148.442 450.558 148.442H368V215C368 215.552 367.552 216 367 216C366.448 216 366 215.552 366 215V148.442H283.442Z" fill="#1D1A1B"/>
<rect opacity="0.1" x="17" y="73" width="198" height="28" rx="8" fill="#1D1A1B"/>
<path d="M35.5431 81.34V91H37.3771V87.192H38.6511C39.6171 87.192 40.4571 86.954 41.0731 86.436C41.7031 85.918 42.0811 85.218 42.0811 84.238C42.0811 83.258 41.7031 82.572 41.0731 82.054C40.4571 81.536 39.6171 81.34 38.6511 81.34H35.5431ZM38.4271 85.764H37.3631V82.768H38.3851C38.9451 82.768 39.3231 82.866 39.6311 83.09C39.9391 83.314 40.2051 83.706 40.2051 84.238C40.2051 84.784 39.9811 85.176 39.6731 85.4C39.3651 85.624 38.9871 85.764 38.4271 85.764ZM47.677 87.08L49.959 91H52.087L49.483 86.856C50.659 86.492 51.569 85.82 51.569 84.154C51.569 83.23 51.135 82.488 50.533 82.026C49.931 81.564 49.119 81.34 48.097 81.34H44.989V91H46.809V87.08H47.677ZM47.747 85.652H46.795V82.768H47.747C48.335 82.768 48.783 82.81 49.133 83.076C49.497 83.328 49.693 83.678 49.693 84.21C49.693 84.756 49.497 85.078 49.133 85.344C48.783 85.61 48.335 85.652 47.747 85.652ZM54.6534 81.34V91H56.4734V81.34H54.6534ZM61.8295 83.874L66.7295 91H68.5635V81.34H66.7855V86.1C66.7855 87.248 66.8135 88.382 66.8135 88.382L62.0115 81.34H60.0795V91H61.8575V86.254C61.8575 85.106 61.8295 83.874 61.8295 83.874ZM80.1852 89.796L79.5412 88.424C78.9672 89.04 78.0712 89.6 76.7832 89.6C74.8512 89.6 73.5492 88.242 73.5492 86.156C73.5492 83.874 74.9912 82.768 76.6712 82.768C78.0432 82.768 79.1352 83.51 79.4152 83.874L80.0592 82.39C79.6672 81.998 78.5752 81.2 76.6852 81.2C73.8852 81.2 71.6732 83.118 71.6732 86.184C71.6732 89.25 73.8572 91.168 76.6852 91.168C78.5892 91.168 79.6392 90.384 80.1852 89.796ZM83.0723 81.34V91H84.8923V81.34H83.0723ZM88.4844 81.34V91H90.3184V87.192H91.5924C92.5584 87.192 93.3984 86.954 94.0144 86.436C94.6444 85.918 95.0224 85.218 95.0224 84.238C95.0224 83.258 94.6444 82.572 94.0144 82.054C93.3984 81.536 92.5584 81.34 91.5924 81.34H88.4844ZM91.3684 85.764H90.3044V82.768H91.3264C91.8864 82.768 92.2644 82.866 92.5724 83.09C92.8804 83.314 93.1464 83.706 93.1464 84.238C93.1464 84.784 92.9224 85.176 92.6144 85.4C92.3064 85.624 91.9284 85.764 91.3684 85.764ZM103.037 88.774L103.877 91H105.865L102.071 81.326H100.307L96.5125 91H98.4025L99.2425 88.774H103.037ZM99.6905 87.318L101.147 83.412L102.589 87.318H99.6905ZM108.497 81.34V91H113.677V89.488H110.303V81.34H108.497ZM120.922 81.34V91H126.998V89.488H122.742V86.744H126.648V85.246H122.742V82.852H126.886V81.34H120.922ZM131.953 83.874L136.853 91H138.687V81.34H136.909V86.1C136.909 87.248 136.937 88.382 136.937 88.382L132.135 81.34H130.203V91H131.981V86.254C131.981 85.106 131.953 83.874 131.953 83.874ZM146.893 87.094H149.217V88.872C149.217 88.872 148.629 89.6 146.851 89.6C145.059 89.6 143.673 88.34 143.673 86.17C143.673 84 145.017 82.74 146.781 82.74C148.195 82.74 149.021 83.398 149.511 83.958L150.729 82.88C150.393 82.53 149.273 81.2 146.781 81.2C144.065 81.2 141.797 83.076 141.797 86.184C141.797 89.432 144.065 91.168 146.809 91.168C149.399 91.168 150.645 89.88 150.981 89.558V85.68H146.893V87.094ZM154.29 81.34V91H156.11V81.34H154.29ZM161.466 83.874L166.366 91H168.2V81.34H166.422V86.1C166.422 87.248 166.45 88.382 166.45 88.382L161.648 81.34H159.716V91H161.494V86.254C161.494 85.106 161.466 83.874 161.466 83.874ZM171.827 81.34V91H177.903V89.488H173.647V86.744H177.553V85.246H173.647V82.852H177.791V81.34H171.827ZM181.109 81.34V91H187.185V89.488H182.929V86.744H186.835V85.246H182.929V82.852H187.073V81.34H181.109ZM193.079 87.08L195.361 91H197.489L194.885 86.856C196.061 86.492 196.971 85.82 196.971 84.154C196.971 83.23 196.537 82.488 195.935 82.026C195.333 81.564 194.521 81.34 193.499 81.34H190.391V91H192.211V87.08H193.079ZM193.149 85.652H192.197V82.768H193.149C193.737 82.768 194.185 82.81 194.535 83.076C194.899 83.328 195.095 83.678 195.095 84.21C195.095 84.756 194.899 85.078 194.535 85.344C194.185 85.61 193.737 85.652 193.149 85.652Z" fill="#1D1A1B"/>
<rect opacity="0.1" x="518" y="73" width="198" height="28" rx="8" fill="#1D1A1B"/>
<path d="M550.143 81.34V91H551.977V87.192H553.251C554.217 87.192 555.057 86.954 555.673 86.436C556.303 85.918 556.681 85.218 556.681 84.238C556.681 83.258 556.303 82.572 555.673 82.054C555.057 81.536 554.217 81.34 553.251 81.34H550.143ZM553.027 85.764H551.963V82.768H552.985C553.545 82.768 553.923 82.866 554.231 83.09C554.539 83.314 554.805 83.706 554.805 84.238C554.805 84.784 554.581 85.176 554.273 85.4C553.965 85.624 553.587 85.764 553.027 85.764ZM562.276 87.08L564.558 91H566.686L564.082 86.856C565.258 86.492 566.168 85.82 566.168 84.154C566.168 83.23 565.734 82.488 565.132 82.026C564.53 81.564 563.718 81.34 562.696 81.34H559.588V91H561.408V87.08H562.276ZM562.346 85.652H561.394V82.768H562.346C562.934 82.768 563.382 82.81 563.732 83.076C564.096 83.328 564.292 83.678 564.292 84.21C564.292 84.756 564.096 85.078 563.732 85.344C563.382 85.61 562.934 85.652 562.346 85.652ZM573.789 91.168C576.589 91.168 578.843 89.292 578.843 86.184C578.843 83.076 576.589 81.2 573.789 81.2C571.003 81.2 568.735 83.076 568.735 86.184C568.735 89.292 571.003 91.168 573.789 91.168ZM576.967 86.17C576.967 88.27 575.581 89.572 573.789 89.572C572.011 89.572 570.611 88.27 570.611 86.17C570.611 84.07 571.997 82.782 573.789 82.782C575.581 82.782 576.967 84.07 576.967 86.17ZM581.952 81.34V91H585.046C586.726 91 587.972 90.454 588.714 89.796C589.47 89.138 590.254 88.004 590.254 86.156C590.254 84.322 589.47 83.216 588.714 82.558C587.972 81.886 586.726 81.34 585.046 81.34H581.952ZM585.116 89.46H583.772V82.866H585.116C586.166 82.866 586.936 83.216 587.412 83.65C587.874 84.098 588.378 84.882 588.378 86.17C588.378 87.472 587.874 88.214 587.412 88.662C586.936 89.11 586.166 89.46 585.116 89.46ZM601.011 81.34H599.191V86.954C599.191 87.696 599.149 88.354 598.771 88.844C598.421 89.292 597.889 89.572 597.147 89.572C596.419 89.572 595.873 89.292 595.523 88.844C595.145 88.354 595.117 87.696 595.117 86.954V81.34H593.283V87.01C593.283 88.298 593.465 89.236 594.137 90.006C594.795 90.748 595.803 91.168 597.147 91.168C598.491 91.168 599.499 90.748 600.157 90.006C600.829 89.236 601.011 88.298 601.011 87.01V81.34ZM612.543 89.796L611.899 88.424C611.325 89.04 610.429 89.6 609.141 89.6C607.209 89.6 605.907 88.242 605.907 86.156C605.907 83.874 607.349 82.768 609.029 82.768C610.401 82.768 611.493 83.51 611.773 83.874L612.417 82.39C612.025 81.998 610.933 81.2 609.043 81.2C606.243 81.2 604.031 83.118 604.031 86.184C604.031 89.25 606.215 91.168 609.043 91.168C610.947 91.168 611.997 90.384 612.543 89.796ZM617.276 82.81V91H619.082V82.81H621.728V81.34H614.616V82.81H617.276ZM633.443 91.168C636.243 91.168 638.497 89.292 638.497 86.184C638.497 83.076 636.243 81.2 633.443 81.2C630.657 81.2 628.389 83.076 628.389 86.184C628.389 89.292 630.657 91.168 633.443 91.168ZM636.621 86.17C636.621 88.27 635.235 89.572 633.443 89.572C631.665 89.572 630.265 88.27 630.265 86.17C630.265 84.07 631.651 82.782 633.443 82.782C635.235 82.782 636.621 84.07 636.621 86.17ZM647.087 83.79L649.159 91.014H650.923L653.709 81.34H651.861L649.985 88.41L648.011 81.34H646.177L644.189 88.41L642.299 81.34H640.409L643.195 91.014H645.001L647.087 83.79ZM658.148 83.874L663.048 91H664.882V81.34H663.104V86.1C663.104 87.248 663.132 88.382 663.132 88.382L658.33 81.34H656.398V91H658.176V86.254C658.176 85.106 658.148 83.874 658.148 83.874ZM668.51 81.34V91H674.586V89.488H670.33V86.744H674.236V85.246H670.33V82.852H674.474V81.34H668.51ZM680.479 87.08L682.761 91H684.889L682.285 86.856C683.461 86.492 684.371 85.82 684.371 84.154C684.371 83.23 683.937 82.488 683.335 82.026C682.733 81.564 681.921 81.34 680.899 81.34H677.791V91H679.611V87.08H680.479ZM680.549 85.652H679.597V82.768H680.549C681.137 82.768 681.585 82.81 681.935 83.076C682.299 83.328 682.495 83.678 682.495 84.21C682.495 84.756 682.299 85.078 681.935 85.344C681.585 85.61 681.137 85.652 680.549 85.652Z" fill="#1D1A1B"/>
<rect opacity="0.1" x="17" width="198" height="28" rx="8" fill="#1D1A1B"/>
<path d="M41.2065 19.218L41.1505 20.562C41.2345 20.618 41.7805 20.758 42.3965 20.758C43.1665 20.758 43.7265 20.422 44.0485 20.002C44.3845 19.568 44.5665 18.882 44.5665 17.888V8.34H42.7605V17.93C42.7605 18.728 42.6345 19.33 41.9625 19.33C41.6405 19.33 41.3885 19.288 41.2065 19.218ZM55.8446 8.34H54.0246V13.954C54.0246 14.696 53.9826 15.354 53.6046 15.844C53.2546 16.292 52.7226 16.572 51.9806 16.572C51.2526 16.572 50.7066 16.292 50.3566 15.844C49.9786 15.354 49.9506 14.696 49.9506 13.954V8.34H48.1166V14.01C48.1166 15.298 48.2986 16.236 48.9706 17.006C49.6286 17.748 50.6366 18.168 51.9806 18.168C53.3246 18.168 54.3326 17.748 54.9906 17.006C55.6626 16.236 55.8446 15.298 55.8446 14.01V8.34ZM61.1323 10.874L66.0323 18H67.8663V8.34H66.0883V13.1C66.0883 14.248 66.1163 15.382 66.1163 15.382L61.3143 8.34H59.3823V18H61.1603V13.254C61.1603 12.106 61.1323 10.874 61.1323 10.874ZM71.4939 8.34V18H73.3139V8.34H71.4939ZM81.456 18.168C84.256 18.168 86.51 16.292 86.51 13.184C86.51 10.076 84.256 8.2 81.456 8.2C78.67 8.2 76.402 10.076 76.402 13.184C76.402 16.292 78.67 18.168 81.456 18.168ZM84.634 13.17C84.634 15.27 83.248 16.572 81.456 16.572C79.678 16.572 78.278 15.27 78.278 13.17C78.278 11.07 79.664 9.782 81.456 9.782C83.248 9.782 84.634 11.07 84.634 13.17ZM92.3075 14.08L94.5895 18H96.7175L94.1135 13.856C95.2895 13.492 96.1995 12.82 96.1995 11.154C96.1995 10.23 95.7655 9.488 95.1635 9.026C94.5615 8.564 93.7495 8.34 92.7275 8.34H89.6195V18H91.4395V14.08H92.3075ZM92.3775 12.652H91.4255V9.768H92.3775C92.9655 9.768 93.4135 9.81 93.7635 10.076C94.1275 10.328 94.3235 10.678 94.3235 11.21C94.3235 11.756 94.1275 12.078 93.7635 12.344C93.4135 12.61 92.9655 12.652 92.3775 12.652ZM103.739 8.34V18H106.833C108.513 18 109.759 17.454 110.501 16.796C111.257 16.138 112.041 15.004 112.041 13.156C112.041 11.322 111.257 10.216 110.501 9.558C109.759 8.886 108.513 8.34 106.833 8.34H103.739ZM106.903 16.46H105.559V9.866H106.903C107.953 9.866 108.723 10.216 109.199 10.65C109.661 11.098 110.165 11.882 110.165 13.17C110.165 14.472 109.661 15.214 109.199 15.662C108.723 16.11 107.953 16.46 106.903 16.46ZM115.14 8.34V18H121.216V16.488H116.96V13.744H120.866V12.246H116.96V9.852H121.104V8.34H115.14ZM123.456 8.34L127.026 18.014H128.65L132.22 8.34H130.372L127.88 15.522L125.388 8.34H123.456ZM134.879 8.34V18H140.955V16.488H136.699V13.744H140.605V12.246H136.699V9.852H140.843V8.34H134.879ZM144.16 8.34V18H149.34V16.488H145.966V8.34H144.16ZM156.31 18.168C159.11 18.168 161.364 16.292 161.364 13.184C161.364 10.076 159.11 8.2 156.31 8.2C153.524 8.2 151.256 10.076 151.256 13.184C151.256 16.292 153.524 18.168 156.31 18.168ZM159.488 13.17C159.488 15.27 158.102 16.572 156.31 16.572C154.532 16.572 153.132 15.27 153.132 13.17C153.132 11.07 154.518 9.782 156.31 9.782C158.102 9.782 159.488 11.07 159.488 13.17ZM164.46 8.34V18H166.294V14.192H167.568C168.534 14.192 169.374 13.954 169.99 13.436C170.62 12.918 170.998 12.218 170.998 11.238C170.998 10.258 170.62 9.572 169.99 9.054C169.374 8.536 168.534 8.34 167.568 8.34H164.46ZM167.344 12.764H166.28V9.768H167.302C167.862 9.768 168.24 9.866 168.548 10.09C168.856 10.314 169.122 10.706 169.122 11.238C169.122 11.784 168.898 12.176 168.59 12.4C168.282 12.624 167.904 12.764 167.344 12.764ZM173.906 8.34V18H179.982V16.488H175.726V13.744H179.632V12.246H175.726V9.852H179.87V8.34H173.906ZM185.875 14.08L188.157 18H190.285L187.681 13.856C188.857 13.492 189.767 12.82 189.767 11.154C189.767 10.23 189.333 9.488 188.731 9.026C188.129 8.564 187.317 8.34 186.295 8.34H183.187V18H185.007V14.08H185.875ZM185.945 12.652H184.993V9.768H185.945C186.533 9.768 186.981 9.81 187.331 10.076C187.695 10.328 187.891 10.678 187.891 11.21C187.891 11.756 187.695 12.078 187.331 12.344C186.981 12.61 186.533 12.652 185.945 12.652Z" fill="#1D1A1B"/>
<rect opacity="0.1" x="518" width="198" height="28" rx="8" fill="#1D1A1B"/>
<path d="M539.413 8.34V18H542.941C543.865 18 544.719 17.846 545.321 17.468C545.979 17.048 546.469 16.292 546.469 15.242C546.469 14.01 545.643 13.198 544.397 12.918V12.89C545.027 12.638 545.895 11.952 545.895 10.776C545.895 9.67 545.405 9.082 544.649 8.718C544.019 8.41 543.291 8.34 542.507 8.34H539.413ZM542.367 12.372H541.233V9.768H542.451C543.389 9.768 544.047 10.174 544.047 11.014C544.047 11.588 543.851 11.924 543.515 12.134C543.221 12.316 542.871 12.372 542.367 12.372ZM542.801 16.572H541.233V13.702H542.717C543.277 13.702 543.655 13.758 544.019 14.01C544.383 14.262 544.621 14.626 544.621 15.158C544.621 15.662 544.411 16.096 544.089 16.306C543.711 16.558 543.263 16.572 542.801 16.572ZM557.091 8.34H555.271V13.954C555.271 14.696 555.229 15.354 554.851 15.844C554.501 16.292 553.969 16.572 553.227 16.572C552.499 16.572 551.953 16.292 551.603 15.844C551.225 15.354 551.197 14.696 551.197 13.954V8.34H549.363V14.01C549.363 15.298 549.545 16.236 550.217 17.006C550.875 17.748 551.883 18.168 553.227 18.168C554.571 18.168 555.579 17.748 556.237 17.006C556.909 16.236 557.091 15.298 557.091 14.01V8.34ZM564.886 12.666L563.276 12.008C562.772 11.798 562.17 11.532 562.17 10.832C562.17 10.118 562.8 9.726 563.598 9.726C564.424 9.726 565.166 10.132 565.782 10.692L566.65 9.39C566.076 8.802 565.082 8.228 563.71 8.228C561.68 8.228 560.364 9.39 560.364 11.07C560.364 12.246 561.064 12.988 562.114 13.408L563.626 14.01C564.452 14.346 564.956 14.598 564.956 15.354C564.956 16.194 564.34 16.628 563.444 16.628C562.534 16.628 561.624 16.18 560.868 15.354L560 16.67C560.63 17.398 561.764 18.168 563.416 18.168C565.46 18.168 566.776 16.978 566.776 15.186C566.776 13.982 566.244 13.226 564.886 12.666ZM569.842 8.34V18H571.662V8.34H569.842ZM577.018 10.874L581.918 18H583.752V8.34H581.974V13.1C581.974 14.248 582.002 15.382 582.002 15.382L577.2 8.34H575.268V18H577.046V13.254C577.046 12.106 577.018 10.874 577.018 10.874ZM587.379 8.34V18H593.455V16.488H589.199V13.744H593.105V12.246H589.199V9.852H593.343V8.34H587.379ZM600.987 12.666L599.377 12.008C598.873 11.798 598.271 11.532 598.271 10.832C598.271 10.118 598.901 9.726 599.699 9.726C600.525 9.726 601.267 10.132 601.883 10.692L602.751 9.39C602.177 8.802 601.183 8.228 599.811 8.228C597.781 8.228 596.465 9.39 596.465 11.07C596.465 12.246 597.165 12.988 598.215 13.408L599.727 14.01C600.553 14.346 601.057 14.598 601.057 15.354C601.057 16.194 600.441 16.628 599.545 16.628C598.635 16.628 597.725 16.18 596.969 15.354L596.101 16.67C596.731 17.398 597.865 18.168 599.517 18.168C601.561 18.168 602.877 16.978 602.877 15.186C602.877 13.982 602.345 13.226 600.987 12.666ZM610.132 12.666L608.522 12.008C608.018 11.798 607.416 11.532 607.416 10.832C607.416 10.118 608.046 9.726 608.844 9.726C609.67 9.726 610.412 10.132 611.028 10.692L611.896 9.39C611.322 8.802 610.328 8.228 608.956 8.228C606.926 8.228 605.61 9.39 605.61 11.07C605.61 12.246 606.31 12.988 607.36 13.408L608.872 14.01C609.698 14.346 610.202 14.598 610.202 15.354C610.202 16.194 609.586 16.628 608.69 16.628C607.78 16.628 606.87 16.18 606.114 15.354L605.246 16.67C605.876 17.398 607.01 18.168 608.662 18.168C610.706 18.168 612.022 16.978 612.022 15.186C612.022 13.982 611.49 13.226 610.132 12.666ZM627.887 10.706L628.447 18H630.239L629.413 8.34H627.103L624.737 15.27H624.709L622.371 8.34H619.977L619.179 18H620.929L621.447 10.706H621.489L624.009 18.042H625.283L627.859 10.706H627.887ZM638.989 15.774L639.829 18H641.817L638.023 8.326H636.259L632.465 18H634.355L635.195 15.774H638.989ZM635.643 14.318L637.099 10.412L638.541 14.318H635.643ZM646.2 10.874L651.1 18H652.934V8.34H651.156V13.1C651.156 14.248 651.184 15.382 651.184 15.382L646.382 8.34H644.45V18H646.228V13.254C646.228 12.106 646.2 10.874 646.2 10.874ZM662.091 15.774L662.931 18H664.919L661.125 8.326H659.361L655.567 18H657.457L658.297 15.774H662.091ZM658.745 14.318L660.201 10.412L661.643 14.318H658.745ZM671.856 14.094H674.18V15.872C674.18 15.872 673.592 16.6 671.814 16.6C670.022 16.6 668.636 15.34 668.636 13.17C668.636 11 669.98 9.74 671.744 9.74C673.158 9.74 673.984 10.398 674.474 10.958L675.692 9.88C675.356 9.53 674.236 8.2 671.744 8.2C669.028 8.2 666.76 10.076 666.76 13.184C666.76 16.432 669.028 18.168 671.772 18.168C674.362 18.168 675.608 16.88 675.944 16.558V12.68H671.856V14.094ZM679.253 8.34V18H685.329V16.488H681.073V13.744H684.979V12.246H681.073V9.852H685.217V8.34H679.253ZM691.223 14.08L693.505 18H695.633L693.029 13.856C694.205 13.492 695.115 12.82 695.115 11.154C695.115 10.23 694.681 9.488 694.079 9.026C693.477 8.564 692.665 8.34 691.643 8.34H688.535V18H690.355V14.08H691.223ZM691.293 12.652H690.341V9.768H691.293C691.881 9.768 692.329 9.81 692.679 10.076C693.043 10.328 693.239 10.678 693.239 11.21C693.239 11.756 693.043 12.078 692.679 12.344C692.329 12.61 691.881 12.652 691.293 12.652Z" fill="#1D1A1B"/>
<rect x="268" y="73" width="198" height="28" rx="8" fill="#0B0B0B"/>
<path d="M286.899 81.34V91H288.733V87.192H290.007C290.973 87.192 291.813 86.954 292.429 86.436C293.059 85.918 293.437 85.218 293.437 84.238C293.437 83.258 293.059 82.572 292.429 82.054C291.813 81.536 290.973 81.34 290.007 81.34H286.899ZM289.783 85.764H288.719V82.768H289.741C290.301 82.768 290.679 82.866 290.987 83.09C291.295 83.314 291.561 83.706 291.561 84.238C291.561 84.784 291.337 85.176 291.029 85.4C290.721 85.624 290.343 85.764 289.783 85.764ZM299.033 87.08L301.315 91H303.443L300.839 86.856C302.015 86.492 302.925 85.82 302.925 84.154C302.925 83.23 302.491 82.488 301.889 82.026C301.287 81.564 300.475 81.34 299.453 81.34H296.345V91H298.165V87.08H299.033ZM299.103 85.652H298.151V82.768H299.103C299.691 82.768 300.139 82.81 300.489 83.076C300.853 83.328 301.049 83.678 301.049 84.21C301.049 84.756 300.853 85.078 300.489 85.344C300.139 85.61 299.691 85.652 299.103 85.652ZM306.009 81.34V91H307.829V81.34H306.009ZM313.185 83.874L318.085 91H319.919V81.34H318.141V86.1C318.141 87.248 318.169 88.382 318.169 88.382L313.367 81.34H311.435V91H313.213V86.254C313.213 85.106 313.185 83.874 313.185 83.874ZM331.541 89.796L330.897 88.424C330.323 89.04 329.427 89.6 328.139 89.6C326.207 89.6 324.905 88.242 324.905 86.156C324.905 83.874 326.347 82.768 328.027 82.768C329.399 82.768 330.491 83.51 330.771 83.874L331.415 82.39C331.023 81.998 329.931 81.2 328.041 81.2C325.241 81.2 323.029 83.118 323.029 86.184C323.029 89.25 325.213 91.168 328.041 91.168C329.945 91.168 330.995 90.384 331.541 89.796ZM334.428 81.34V91H336.248V81.34H334.428ZM339.84 81.34V91H341.674V87.192H342.948C343.914 87.192 344.754 86.954 345.37 86.436C346 85.918 346.378 85.218 346.378 84.238C346.378 83.258 346 82.572 345.37 82.054C344.754 81.536 343.914 81.34 342.948 81.34H339.84ZM342.724 85.764H341.66V82.768H342.682C343.242 82.768 343.62 82.866 343.928 83.09C344.236 83.314 344.502 83.706 344.502 84.238C344.502 84.784 344.278 85.176 343.97 85.4C343.662 85.624 343.284 85.764 342.724 85.764ZM354.392 88.774L355.232 91H357.22L353.426 81.326H351.662L347.868 91H349.758L350.598 88.774H354.392ZM351.046 87.318L352.502 83.412L353.944 87.318H351.046ZM359.853 81.34V91H365.033V89.488H361.659V81.34H359.853ZM372.277 81.34V91H375.371C377.051 91 378.297 90.454 379.039 89.796C379.795 89.138 380.579 88.004 380.579 86.156C380.579 84.322 379.795 83.216 379.039 82.558C378.297 81.886 377.051 81.34 375.371 81.34H372.277ZM375.441 89.46H374.097V82.866H375.441C376.491 82.866 377.261 83.216 377.737 83.65C378.199 84.098 378.703 84.882 378.703 86.17C378.703 87.472 378.199 88.214 377.737 88.662C377.261 89.11 376.491 89.46 375.441 89.46ZM383.678 81.34V91H389.754V89.488H385.498V86.744H389.404V85.246H385.498V82.852H389.642V81.34H383.678ZM397.285 85.666L395.675 85.008C395.171 84.798 394.569 84.532 394.569 83.832C394.569 83.118 395.199 82.726 395.997 82.726C396.823 82.726 397.565 83.132 398.181 83.692L399.049 82.39C398.475 81.802 397.481 81.228 396.109 81.228C394.079 81.228 392.763 82.39 392.763 84.07C392.763 85.246 393.463 85.988 394.513 86.408L396.025 87.01C396.851 87.346 397.355 87.598 397.355 88.354C397.355 89.194 396.739 89.628 395.843 89.628C394.933 89.628 394.023 89.18 393.267 88.354L392.399 89.67C393.029 90.398 394.163 91.168 395.815 91.168C397.859 91.168 399.175 89.978 399.175 88.186C399.175 86.982 398.643 86.226 397.285 85.666ZM402.241 81.34V91H404.061V81.34H402.241ZM412.245 87.094H414.569V88.872C414.569 88.872 413.981 89.6 412.203 89.6C410.411 89.6 409.025 88.34 409.025 86.17C409.025 84 410.369 82.74 412.133 82.74C413.547 82.74 414.373 83.398 414.863 83.958L416.081 82.88C415.745 82.53 414.625 81.2 412.133 81.2C409.417 81.2 407.149 83.076 407.149 86.184C407.149 89.432 409.417 91.168 412.161 91.168C414.751 91.168 415.997 89.88 416.333 89.558V85.68H412.245V87.094ZM421.392 83.874L426.292 91H428.126V81.34H426.348V86.1C426.348 87.248 426.376 88.382 426.376 88.382L421.574 81.34H419.642V91H421.42V86.254C421.42 85.106 421.392 83.874 421.392 83.874ZM431.754 81.34V91H437.83V89.488H433.574V86.744H437.48V85.246H433.574V82.852H437.718V81.34H431.754ZM443.723 87.08L446.005 91H448.133L445.529 86.856C446.705 86.492 447.615 85.82 447.615 84.154C447.615 83.23 447.181 82.488 446.579 82.026C445.977 81.564 445.165 81.34 444.143 81.34H441.035V91H442.855V87.08H443.723ZM443.793 85.652H442.841V82.768H443.793C444.381 82.768 444.829 82.81 445.179 83.076C445.543 83.328 445.739 83.678 445.739 84.21C445.739 84.756 445.543 85.078 445.179 85.344C444.829 85.61 444.381 85.652 443.793 85.652Z" fill="#E9E9E9"/>
<path d="M353.055 54.2531L354.175 53.6651C353.475 52.6151 352.467 50.1651 352.467 47.6871C352.467 45.2091 353.475 42.7591 354.175 41.7091L353.055 41.1211C352.019 42.6471 350.913 44.7751 350.913 47.6871C350.913 50.5991 352.019 52.7271 353.055 54.2531Z" fill="#999999"/>
<path d="M365.551 44.7051L366.111 51.9991H367.903L367.077 42.3391H364.767L362.401 49.2691H362.373L360.035 42.3391H357.641L356.843 51.9991H358.593L359.111 44.7051H359.153L361.673 52.0411H362.947L365.523 44.7051H365.551Z" fill="#999999"/>
<path d="M371.123 42.3391V51.9991H377.199V50.4871H372.943V47.7431H376.849V46.2451H372.943V43.8511H377.087V42.3391H371.123Z" fill="#999999"/>
<path d="M379.817 53.6651L380.951 54.2531C381.973 52.7271 383.093 50.5991 383.093 47.6871C383.093 44.7751 381.973 42.6471 380.951 41.1211L379.817 41.7091C380.517 42.7591 381.525 45.2091 381.525 47.6871C381.525 50.1651 380.517 52.6151 379.817 53.6651Z" fill="#999999"/>
</svg>
